<?xml version="1.0" encoding="utf-8"?>
<!-- Generator: Adobe Illustrator 25.0.0, SVG Export Plug-In . SVG Version: 6.00 Build 0)  -->
<svg version="1.1" id="Capa_1" xmlns="http://www.w3.org/2000/svg" xmlns:xlink="http://www.w3.org/1999/xlink" x="0px" y="0px"
	 viewBox="0 0 815.9 421.4" style="enable-background:new 0 0 815.9 421.4;" xml:space="preserve">
<style type="text/css">
	.st0{fill:#FFFFFF;}
	.st1{fill:none;}
	.st2{fill:#FDEDE9;}
	.st3{fill:url(#SVGID_1_);}
	.st4{fill:#BBD369;}
	.st5{fill:#74BA5E;}
	.st6{fill:#FDF9D6;}
	.st7{fill:#FAD4D4;}
	.st8{fill:#AAA984;}
	.st9{fill:#67BDA2;}
	.st10{fill:#F4A7AB;}
	.st11{fill:#F4A7AB;stroke:#F4A7AB;stroke-width:3;stroke-linecap:round;stroke-linejoin:round;stroke-miterlimit:10;}
	.st12{fill:#D47F80;stroke:#D47F80;stroke-width:3;stroke-linejoin:round;stroke-miterlimit:10;}
	.st13{fill:#D47F80;stroke:#D47F80;stroke-width:3;stroke-miterlimit:10;}
	.st14{fill:#FDF9D6;stroke:#FDF9D6;stroke-width:3;stroke-miterlimit:10;}
	.st15{fill:#AFCE68;}
	.st16{fill:#D47F80;stroke:#D47F80;stroke-width:2;stroke-miterlimit:10;}
	.st17{fill:#FCD3AA;}
	.st18{fill:#FAF3AB;}
	.st19{fill:#D47F80;}
	.st20{fill:#D47F80;stroke:#D47F80;stroke-miterlimit:10;}
	.st21{fill:#F4A7AB;stroke:#F4A7AB;stroke-miterlimit:10;}
	.st22{fill:#FCD3AA;stroke:#FCD3AA;stroke-width:2;stroke-miterlimit:10;}
	.st23{fill:#EF7C80;}
	.st24{fill:#D4567F;stroke:#D4567F;stroke-width:5;stroke-linecap:round;stroke-linejoin:round;stroke-miterlimit:10;}
	.st25{fill:#EF7C80;stroke:#EF7C80;stroke-miterlimit:10;}
	.st26{fill:#EF7C80;stroke:#EF7C80;stroke-width:3;stroke-miterlimit:10;}
	.st27{fill:#D4567F;}
	.st28{fill:#2A7F56;}
	.st29{fill:#FCD3AA;stroke:#FCD3AA;stroke-miterlimit:10;}
	.st30{fill:#FCD3AA;stroke:#FCD3AA;stroke-width:3;stroke-linejoin:round;stroke-miterlimit:10;}
	.st31{fill:#F4A7AB;stroke:#F4A7AB;stroke-width:3;stroke-linejoin:round;stroke-miterlimit:10;}
	.st32{fill:#FCD3AA;stroke:#FCD3AA;stroke-width:5;stroke-miterlimit:10;}
	.st33{fill:#FCD3AA;stroke:#FCD3AA;stroke-width:4;stroke-linejoin:round;stroke-miterlimit:10;}
	.st34{fill:#EF7C80;stroke:#EF7C80;stroke-width:5;stroke-linejoin:round;stroke-miterlimit:10;}
	.st35{fill:#56AF58;}
	.st36{fill:#015655;}
	.st37{fill:#F4A7AB;stroke:#F4A7AB;stroke-width:4;stroke-miterlimit:10;}
	.st38{fill:url(#SVGID_2_);}
	.st39{fill:url(#SVGID_3_);}
	.st40{fill:url(#SVGID_4_);}
	.st41{fill:#105157;}
	.st42{fill:#D47F80;stroke:#D47F80;stroke-width:4;stroke-linecap:round;stroke-miterlimit:10;}
	.st43{fill:none;stroke:#F4A6AB;stroke-width:4;stroke-linecap:round;stroke-linejoin:round;stroke-miterlimit:10;}
	.st44{fill:none;stroke:#F4A6AB;stroke-width:4.6015;stroke-linecap:round;stroke-linejoin:round;stroke-miterlimit:10;}
	.st45{fill:#EF7C80;stroke:#EF7C80;stroke-width:4;stroke-linecap:round;stroke-miterlimit:10;}
</style>
<rect x="0.3" y="-1.3" class="st0" width="815.6" height="421.4"/>
<rect x="-864" y="804" class="st1" width="824" height="618"/>
<g>
	<path class="st2" d="M56.7,1.6c1.4,2.5,1.8,5,1.4,7.8c-0.2,7.9,1.6,15.7,3.9,23c0.8,8.9,12,5.5,17.9,4.8
		c12-1.9,16.3,14.2,27.6,15.6c10.1,2.8,19.3-4.8,28.8-4.2c15.8-1.7,27.3,11,34.2,23.8c4.2,8.1,4.1,19.2,13,24.1
		c3.6,4.3,9.1,0.9,13.1,4.4c2.4,2.7,3.9,1.4,6.7,2.1c1.4,0.8,2.8,0.2,4.2,0c1.6,0.6,3.1,0.2,4.7,0c1.9-0.2,3.6-0.5,5.3-1.3
		c3.3-1.4,9.7,3.8,5.3,6.7c-2,1.2-2.4,2.7-1.6,4.8c0.7,5-1.3,1.6-2.2,3.4c-1,2,1.6,2.8,1,4.7c-0.9,2.5,1.2,4.5,3.5,2.5
		c0.6,2.2,0.7,4.9,2.1,6.4c2.3,1.4,2.6,4.4,4.6,6.1c1.5,1.5,0.9,3.5,1.7,5.2c-6.3-0.6-12.4-12.3-18.3-16c-7-7.2-12.1-18.4-23.5-18.7
		c0-0.3,0-0.6,0-1c1.9-0.3,1.9-0.3,1.8-2.6c0-0.6,0.1-1.2-0.6-1.4c-3.1,0.4-4.4,4.7-7,6c-1.1,0-1,0.7-0.9,1.5
		c-1.7,0.3-1.9,2-3.3,2.7c-1.5-0.2-0.9,1-1,1.7c-1.8,0.2-1.8,0.2-2,2.1c-1.4-0.1-1.9,0.6-1.9,2c-1.6,0.1-3.7,2-4.2-0.4
		c-4.3-6.4-7.7-15.3-14.1-19.5c-21.4-9.4-16.9,4.6-37.1-14.9c-4.1-1.9-4.3-5.4-5.2-9.2c-1.8-2.4-10.7-18.2-11.8-10.7
		c-1.2-0.1-1.8,0.5-1.9,1.7c-1.8,0.1-1.8,0.1-1.8,1.9c-4.1,2.7-6.1,8-9.9,11.3c-0.9,0.2-0.9,0.8-0.8,1.5c-5.7,5-10.3,11.1-14.4,17.2
		c-0.7,0.6-1.8,1.2-1.9,2.4c-2.1,0.1-1.5,0.7-2,2.4c-2,0.2-2,0.2-2.4,2c-3.1-1.5-10-8.4-13.5-6c-1.3,0.1-2,0.7-2.3,2
		c-1.3,0-1.9,0.6-1.9,1.9c-1.8,0.5-4,2-4.3,3.9c-1.8,0-2.1,1.5-3.2,2.3c-1,0.3-1.1,1.2-1.2,2.1c-1.6,0.2-2.5,0.3-2.3,2.1
		c-0.6,0.1-1.3,0.1-1.7,0.8c-7.4,8-16.9,15.7-22.3,25l0,0c-1.1,0.1-2.6,0.6-2.4,2c-1.3,0.1-2,0.6-1.9,2c-7.4-1.1-4.8-11.1-7.2-16
		c-11.8-30.4-2.5,25.6-7.6,29c0-50.9,0-101.8,0-152.9C16.1,1.6,36.4,1.6,56.7,1.6z"/>
	<path class="st2" d="M591.1,118.1c5.2-1.2,1-8.9,2.9-12.8c3-23.7,26.4-34.5,47.6-35.5c24.3,3.5,12.7-15.1,22.9-26.6
		c3.4-3.4,8.5-4.5,13.1-4.9c2.7,0.3,5,2,7.8,1.5c2.7,0.8,5.1,3.9,6.5-0.5c7.3-27.6,48-3.4,28.3-33.7c-1.4-1.4-0.5-2.4,0-4
		c33.1,0,66.2,0,99.3,0c0,31.2,0,62.4,0,93.5c-0.6-0.5-0.8-1.5-1.8-1.5c-0.3-1.5,0.3-3.6-2-3.5c-0.5-1.3,0.5-4.1-1.6-3.8
		c-1-0.8-0.8-2.6-1-3.5c-1.1-0.7-1.4-1.9-2.1-2.8c-2.4-0.2-0.6-4.6-3.4-4.2c0-3.5-2.9-6-4.4-8.3c-2.8-11.4-8.3-3.1-13.6,1.4
		c-0.2-2.2-3-1.9-3.2-3.8c0.5-2.1-2.3-0.8-1.9-3c-7.3-8.1-14.3-19-22-27.9c-0.9-1.3-2.7-1-2.6,0.7c-0.1,1.9-1.7,3.1-1.8,4.9
		c-0.2,5.5-1.9,3.2-2.5,6.3c-13.5-2.7-18,14.4-28.6,18.8c0.2-1.5-1.4-1.4-2.4-2c-0.1-0.9-0.5-1.4-1.5-1.4c-2.7-0.5-2.4-2.9-4.3-2.3
		c-9.1,7.4-17.7,16.6-26.7,24.5c-10.9,9.6-26.4,11.3-39.3,16.9c-7.7,3.9-20.1,30.7-26.5,29.5c-1.9-2-7.1-8.8-8.4-3.3
		c-2.7,0-8.1,10.6-10,5.8c-1.7-3-2.5,0.7-2.6-4.7c-2.8-4.2-8-6.2-12.7-7.9C591.7,120,591.2,119.2,591.1,118.1z"/>
	<path class="st2" d="M503.1,212.4c3.1-42.3-25.5-86.7-66.8-98.9c-2.3-3.2-7.8,0-9.1-3.5c2-1,5.7,0,7.8,0.5c1.5,2.3,4.4,0.5,5.9,2.4
		c18.1,6.3,34.1,20,46.1,35.8c5.1,4.3,6,18,14.6,15.2c4.9-1.2,9.1-4.3,12-8.6c2.2-7.9,11.9-8.7,18.7-5.9c33.4,22.4,13.8-13,43-23.8
		c5.6-0.4,5.7-4.5,9.3-5.1c0.9,3.1-3.4,2.5-3.4,4.9c-0.4,0.2-0.4,0.6-0.4,1c-0.8,0.4-1.9,0.5-1.9,1.6c-0.7,4.1-4.3,6.8-5.6,10.5
		c-4.6,9.1-11.6,16.5-16.4,25.3c-6,8.4-22.7-3.2-20.9,13.8c-3.9,0.2-4.5,17.8-9,16.9c-0.5-1.8-3-1-3.5,0.6c-0.9,3.6-4,4.9-7,6.6
		c-2.5,1.7-3.9-2.3-6.3-2.6c-0.6-0.2-0.9,0.2-0.9,0.8c-3.6,3.9-2.2,4.4-2.7,9.2c-3.7-1.9-0.9,3.4-3.4,4.3
		C503.1,213.1,503.1,212.7,503.1,212.4z"/>
</g>
<linearGradient id="SVGID_1_" gradientUnits="userSpaceOnUse" x1="405.5" y1="124.1898" x2="405.5" y2="322.1898" gradientTransform="matrix(1 0 0 -1 0 421.8898)">
	<stop  offset="0" style="stop-color:#FFFFFF"/>
	<stop  offset="1" style="stop-color:#FACD7D"/>
</linearGradient>
<circle class="st3" cx="405.5" cy="198.7" r="99"/>
<path class="st4" d="M333.7,221.4l2-22.6L339,216l3.8-22.4l4.2,19.8l3.4-17.6l3.7,11l1.7-10.5l4.3,13.3l5.1-13.5l5.4,17.3l6.6-15.2
	l2.3,15.2l2.9-10.9l5.7,10.9l5.1-13.7l4,13.7l6-14.2l4.2,13l6.1-6l3.7,5.7l4.8-12.7l2.6,14.2l6.6-10.2l2,9l4-8.3l5.7,13.8l5.1-15.2
	l5.4,13.5l3.7-17.1l4.9,20l5.4-26.2c0,0,5.7,16,5.7,17s4.5-18.2,4.5-18.2l3.9,12.5l4.7-17.7l6.3,20.6l1.7-15.8l2.8,11.6l4.5-9v42.2
	l-166.4-2.2L333.7,221.4z"/>
<path class="st5" d="M349.3,228.6l4.3-12.1l2.9,7.6l0.7-1.9l1.9-5.6l1.7,11l3.1-6.8l3,10.6l3.9-7.5l4.3,4.1l1.7,5.7l3.1-5.4
	l4.3-11.6l1.1,17l2.3,0.7L391,224l1.5,7.4l5.1-12V230l6-10.8l3.9,8l2.9-8.5L417,231l5.1-10.1l5,11.2l9-14l1.7,10.5
	c0,0,11.4,1.9,10.6,0.9c-0.9-0.9,0-15.8,0-15.8l6.2,15.5l7.1-6.4l2.6,3.6l3.7-5.6l5.1,5.9l-4.9,34.2l-126.9-10.3L349.3,228.6z"/>
<g>
	<path class="st6" d="M765.2,35c2.1-4.5,8.3-3.2,10.8-7.5c2.7-1.5,1.5-4.1,3-4.8c2.2,0.1,0.7-2.4,2-3.2c2-1.3,3-3.4,3.4-5.7
		c0-2.7,2.1-1.3,1.9-3.3c-0.2-3,2.6-5,1.9-8.1c10.4,0,20.8,0,31.2,0c0,27.5,0,55,0,82.5c-1-0.3-1.5,0.9-2.4,0.9c0-0.5,0-0.9,0-1.4
		c1.6-0.1,0.1-1.6,0,0c-0.3,0-0.6,0-1,0c-0.8-3.6-4-5.9-5.2-9.4c-1.7-1.2-1.5-3.6-3.1-4.9c-0.3-0.3-0.2-0.7-0.1-1.1
		c0.2-0.7-0.1-0.9-0.7-0.7c-1.1,0.4-2-2.6-2.8-3.4c-0.5-1.3-0.3-3.2-2.2-3.8c-0.8-3.3-6-2.4-7.8-0.2c-0.9,0.9-1.8,1.9-3.4,1
		c-1.5-1-1.7,1.1-2.5,0.8c-3.5-1.7,0.7-2-0.2-3.6c-0.9-1.3-2,2.1-2.8,0.5c-0.2-0.8-1.2-0.7-1.3-1.6c-0.2-3.2-5.1-4.3-4.5-7.5
		c0.2-0.4-0.1-0.9-0.5-1c-0.9-0.2-0.1,1-0.8,1c-0.8-0.4-1.9-2.6-0.4-2.7c2.5-0.3-0.9-6.6-1.9,0.4c-0.6-1.6-0.3-3.6-2.5-3.7
		c-0.2-1.4-1.2-2.2-2.1-3.2c-0.7-1.1-1-2.7-2.9-2.8c-0.5,0-0.5-0.8-0.9-1C766.4,37,766.6,35.3,765.2,35z"/>
	<path class="st7" d="M-4.5,59c23.2-0.6,22.9,22.4,25.7,38.8c0.8,1.9,2.4,4.2,2.4,6c-1.1,1.3-0.4,1.9,0.7,2.5c2.3,1.9,3.9,4.4,6.4,6
		c1.4,1.4,1.4-1.2,2.2-1.4c1.7,0.6,1.7-1,2.3-1.7c3-1.1,3.1,0.9,0.6,2.1c-3.6,4.1-8.1,7.2-11.2,11.8c-1,0.1-1.8,0.3-1.9,1.5
		c-0.7,0.4-1.4,0.9-1.5,1.9c-1.6,0.8-2.6,1.9-3.3,3.5c-1.9,0.7-5.4,4.1-5.4,6.2c-2,0.3-2.1,0.3-2.3,2c-2.5,1.1-4.7,3.2-5.4,6.1
		c-1.3,0.6-3.1,1.8-3.3,3.4c-2.3,0.2-3.8,2.9-6.2,3.4C-4.5,120.5-4.5,89.8-4.5,59z"/>
	<path class="st8" d="M819.5,231.8c0,129.5,0,64.1,0,193.6c-274.6,0-549.3,0-823.9,0c0-124.3,0-53.5,0-177.8
		c5.1,114.2-4.1,63.2,3.1,176.8c271.6,0.1,543.1,0,814.7,0c2.1-0.1,5.3,0.8,5.5-2.1c0.3-119-0.2-70.4,0.1-190.5
		C819.1,231.9,819.3,231.8,819.5,231.8z"/>
	<path class="st7" d="M817.1,85.9c0.9,0,1.3-1.2,2.4-0.9c0,0.8,0,1.6,0,2.4c-0.4-0.1-0.7-0.7-1.2-0.6c-0.3,1.8-0.3,1.8,0.2,3.2
		c0.6-0.2,0.4-1,1-1.2c0,1.6,0,3.2,0,4.8c-0.8-0.2-0.9-1.4-1.9-1.5c-0.1-0.9,0.2-2-0.5-2.7c-1.8-2.8-3.3-5.4-5.5-7.8
		c-1.5-2.1-2.2-4.8-4.2-6.6c-1-3.1-3.7-5.6-4.7-8.8c-0.5-2.7-2.4-4.7-5-5.3c-0.8,3.8-5.6,4-6.6,7.3c-0.8,0-1.6,0-2.3-0.1
		c0-0.5,0.1-1.1-0.5-1.4c-0.2-0.5-0.6-0.5-1-0.4c-0.9-0.1,0.1-1.5-0.9-1.9l0,0c-0.1-2.4-3.8-1.9-3.8-4.3c-0.6-1-0.6-2.1-1.9-2.4
		c-0.1-1.4-1.1-2.4-2.3-2.9c0.2-1.7-1.3-1.9-2-2.8c-0.1-1.2-0.5-2-1.9-2c-0.9-0.8-0.9-2.3-2-2.8c-2.5-3.7-5.6-8.7-9.4-11.7
		c-0.5-1.5-1.8-3.1-3.2-1.3c-0.9-4.7,4.4-1.1,5.5,0.9c1.6,0.6,1.7,2.8,3.1,3.7c1.8,0.1,2.1,1.8,2.9,2.8c0.7,1,2.1,1.5,2,3
		c2.1,0.4,2.1,2,2.6,3.9c1-7,4.5-0.7,1.9-0.4c-1.5,0-0.4,2.2,0.4,2.7c0.8,0-0.1-1.2,0.8-1c0.4,0.1,0.7,0.5,0.5,1
		c-0.7,3.3,4.2,4.3,4.5,7.5c0.1,0.8,1.1,0.7,1.3,1.6c0.9,1.6,1.9-1.8,2.8-0.5c1,1.6-3.4,1.9,0.2,3.6c3.1-2.6,2.9,1.5,5.9-1.8
		c4.2-4.3,9.2-0.9,10,3.9c0.9,0.9,1.7,3.8,2.8,3.4c0.6-0.2,0.9,0,0.7,0.7c-0.1,0.4-0.2,0.9,0.1,1.1c1.5,1.3,1.4,3.7,3.1,4.9
		c1.2,1.8,1.7,4.1,3.4,5.6C816.5,81.9,815.6,88.4,817.1,85.9z"/>
	<path class="st9" d="M819.5,231.8c-0.5,0.2-0.9,0-1.4-0.1c0.5-31.4-0.6-62.7,0.5-94.1c0.3-0.1,0.6-0.2,0.9-0.3
		C819.5,168.8,819.5,200.3,819.5,231.8z"/>
	<path class="st10" d="M-4.5,151.2c2.5-0.4,3.9-3.1,6.2-3.4c-0.6,1.2-1.6,2.6-2.9,3.2c-4,1.1-1.4,14.4-1.5,18.3
		c-1.5,19.8,0.3,40.1-0.5,59.6c-0.9,0.5-1.1,1.2-0.8,2.1c-0.2-0.1-0.5-0.1-0.7-0.2C-4.5,204.3-4.5,177.7-4.5,151.2z"/>
	<path class="st10" d="M817.6,92.1c1,0.1,1,1.3,1.9,1.5c0,13.8,0,27.5,0,41.3C815.9,121.5,819.5,105.5,817.6,92.1z"/>
	<path class="st9" d="M-4.5,230.8c0.7,0,1,0.6,1.4,1.2c-1,5-0.1,10.5-0.5,15.7c-0.3,0-0.6-0.1-0.9-0.1C-4.5,242-4.5,236.4-4.5,230.8
		z"/>
	<path class="st8" d="M818.9,133.3c0.2,1.3,0.8,2.4,0.6,3.9c-0.3,0.1-0.6,0.2-0.9,0.3c-0.7-3.5-1.3,1-2.8,1.1c-0.3-1.4,0-2.8,0-4.2
		C817,134.7,817.9,133.7,818.9,133.3z"/>
	<path class="st6" d="M819.5,88.8c-0.6,0.2-0.4,1-1,1.2c-0.5-1.4-0.5-1.4-0.2-3.2c0.5-0.1,0.8,0.5,1.2,0.6
		C819.5,87.8,819.5,88.3,819.5,88.8z"/>
	<path class="st6" d="M602.9,121.1c4.8-3.5,10.9-4.7,15.9-8c1.4-0.9,3.1-1.5,4.6-2c0.2-1.4,1.7-1.8,2.4-2.7c2-3.1,5.6-2.1,8.1-4.2
		c2.1-2.4,5-3.3,8-3.5c1-1.5,2.6-1.2,4.1-1.4c1.8,0.1,2.9-1.7,4.6-1.8c-3.9,4.9-9.6,9.2-12.5,15c-0.2,1.7-1.9,2-2.8,3.1
		c-0.7,0.9-1.2-0.5-1.9-0.3c-0.6,0.1-1.3-0.2-1.8,0.5c2.8,2.2,0.3,3.7-0.6,5.6c-1-0.7-1.3-1.9-2.8-2.2c-1.1,1.8,1.6,3.5,0.4,4.9
		c-0.7,0.4-1.5-0.3-2-1c-0.8-2.6-2.9,1.3-4-0.9c-0.8-1.4-2.1-1.2-3.4-1.2c-1.8-0.1-1.6,0.5-1.8,2.4c-1.8,0.2-1.8,0.2-1.9,2
		c-0.8,0.7-2.5,0.3-2.5,2c-2.8,1-0.9,1.8-2.5,2.3c-1.2-0.1-0.2-1.6-1.1-1.9c-0.9,0.4,0.4,1.4-0.5,1.8c-1.5-0.4,0.2-3.4-2.4-2.5
		C605.5,124.9,604.7,122.6,602.9,121.1z"/>
	<path class="st7" d="M104.4,60.5c3.9,2.3,6.1,6.8,9,10.1c2.3,3.6,1.2,8,5.6,10.4c6.8,3.6,12.5,13.8,21.1,11.1
		c6-0.9,12.1,2.3,17.7,4.3c3.4,2.2,5.4,6.3,7.2,9.9c1.7,1.1,2,3.2,3.4,4.6c0.3,2.3,2.7,3.6,3.1,6.2c1.1-1.1,2-2.1,3.4-2
		c-0.4,1.2-2.1,1.3-2,2.8c-0.4,0.1-0.7,0.2-0.8,0.6c-2.9-1.7-3.2-5.2-5.4-7.6c-1.1-1.3-2.6-2.6-2.5-4.6c-3.3-2.5-3.6-8.5-8.2-9
		c-1.1,0-2.4-0.2-3.3-1.2c-1.5-1.1-3.8-0.5-5.3-1.8c-4.2-1.9-9.4,0.1-13.7-0.7c-10.8-9.2-20.6-1-23.2-8.3c-1.6-10.7-11.2-4-9.5-10.9
		c3.6-0.8,1-6.6,2-9.1C104.8,64.2,104.4,62.4,104.4,60.5z"/>
	<path class="st11" d="M69,99.5c0.3-0.1,0.6-0.1,0.9-0.2c0.5,1.2-1,3.6,0.5,3.7c9.1,1.5-1.5,7.6-3.9,10.8c-1,1.1-2.6,1.4-3.2,3
		c-3.8,3-9.1-5.4-12.5-7.4c-2.9-2.7,1.7-5,1-8.2l0,0c0.2-0.2,0.3-0.3,0.5-0.5l0,0c3.4-4.2-0.7-1.9,1.5-5.7c3.9-0.5,6.7,3,10.1,3.8
		c0.5,0.7,1.2,0.9,2,0.9C66.1,101.8,68.7,101.6,69,99.5z"/>
	<path class="st7" d="M617.5,122.9c-0.5-3.1,4-2.5,5.1-0.8c1.1,2.2,3.2-1.7,4,0.9c1,1.9,3.4,0.9,1.8-0.9c-0.7-0.9-0.5-1.9-0.3-3
		c1.4,0.3,1.8,1.5,2.8,2.2c0.9-1.9,3.4-3.4,0.6-5.6c0.6-0.7,1.2-0.4,1.8-0.5c0.7-0.2,1.1,1.2,1.9,0.3c0.9-1.1,2.6-1.4,2.8-3.1
		c2.9-5.8,8.6-10.1,12.5-15c3.3-0.3,6.7-2.1,10.1-2.9c1-0.3,1.9-1,2.9-1.4c1.2-0.2,2.6,0.5,3.4-1c2.2-0.9,5-1.7,7.2-2.9
		c4.4-0.8,9.1-2,13-4.8c0.1-0.1,0.3-0.3,0.5-0.5c0.1-0.1,0.3-0.3,0.5-0.5l0,0C696.5,77,704.4,69,712.5,62c0.9-2,3.3-1.8,4.2-3.6
		c0.4-1.1,3.4-1.1,2.2,0.1c-0.7,0,0.1,0.8-0.2,1.3c-0.5,0.6-0.9,1.2-1.8,1c-0.6,0.4-0.7,1.3-1.5,1.5c-12.6,7.5-20.6,22.9-35.2,27.1
		c-9.2,3.4-18.7,6.7-27.6,9.9c-8.1,7.4-14.5,17.7-21.6,26.5c-2.6,5.5-6.2-0.6-8.7-2c0-0.3-0.2-0.5-0.5-0.5
		C621.6,120.8,618.9,122.4,617.5,122.9z"/>
	<path class="st12" d="M52.7,97c2.1,1.6-0.1,2.1-0.5,3.8c-0.2,0.2-0.3,0.3-0.5,0.5c-1.2,2-4.1,3.7-3.6,6.3c0.2,0.4,0.4,1-0.3,1.2
		c-0.9,0-1.5-1.5-0.8-2.2c0.4-0.5-0.6-1-0.8-0.5c-0.5,1.6-2.9,1.4-3.1,3.3c0,0.2-0.3,0.3-0.6,0.4c-4.6,4-11.1,8.1-13.7,13.3
		c1,0.3,2.4,0,2.7,1.6c1.3,0.9,3.6,0.6,4.9,2.1c2.2,1.6,6.2-2,7.3,2.5c-0.5,1.6,2.5,4,0.7,4.8c-1.4,0.2-3,0.7-4.1-0.3
		c-1.3-1.1-2.7-1.1-4.2-1.2c-1.2-0.6-2.9,1.4-4.9,1.7c-5.1-0.6-9.9,0.6-14.5,2.2c-1.1,0.3-2.5,0.2-2.3,2c-1.4,1.5-4.3,1.8-4.7,4.4
		c-0.6,1.7-3.3,1.5-3.6,3.6c-1.4,3.2-9.2,8-4.5,1.3l0,0c1-1.9,2.3-0.3,2.4-2.9c2.5-1.3,5-4.1,6.3-6.6c1.6,0.3,2-0.8,2.3-2
		c1.1,0.1,1.3-1,1.9-1.5c2,2.7,4-1,6.4-0.5c3.4-0.1,6-2.2,8.4-4.1c2.2-0.2,4.7-0.7,6.5,0.7c1.4,0.8,4.2,1.7,5,0.4
		c-3.6-2.4-8.2-4.9-12.5-7.1c-4.3,0.3-7.1,7.4-11.4,8.2c0.3-0.8,1-1.5,1-2.4c0.3,0,0.4-0.3,0.5-0.5c1.6-0.4,2.4-1.5,2.8-3
		c1.3,0,1.5-0.8,1.5-1.9c2.4-0.6,2.7-4.1,5.1-5.3c1.8-2.9,5.4-4.4,7.2-7.5c1.1-0.7,2.3-1.1,2.6-2.5c1.3-0.3,4.7-2.4,4.3-3.9
		c1.7-0.5,2.5-0.4,2.6-2.2c1.6-1,2.5,0.8,3.2-2c1.4,0.2,1.3-0.9,1.4-2C53,99.9,50.2,97.1,52.7,97z"/>
	<path class="st10" d="M242.3,142.6c14-12.2,7.6-9.2,16.9,3.4c0.3,1.8,2.6,2.3,2.2,4.2l0,0c-3.5-0.9-3.1-5.5-6.4-6.5
		c-0.7-0.7-0.4-2-1.4-2.8c0.8,12.7,3.6,24.7,4.4,37.4c0.3,1.9,3.2,11.6,0.3,11.6c-5-3-8-18-10.4-23.9c-1.9-2.7-2-6.2-3.4-9.1
		c0.1-1.5-1.2-2.3-1.8-3.5c-0.5-1.2,0.1-2.7-0.8-3.9c-1.2-1.2-2.8-4.6-0.7-5.4C242.1,143.9,242.2,143.3,242.3,142.6z M243.6,149.3
		L243.6,149.3c4.2,11.1,8.1,23.5,12.6,34.2c2.5-2.3-0.7-6.6-0.7-9.6c-0.3-12.4-5.1-24.7-4-36.9c-1.8-1.1-2.7,1.3-3.8,2
		c-1.9,2.3-4.2,3.7-5.7,6.2C243,146.4,242.7,148.2,243.6,149.3z"/>
	<path class="st13" d="M69.9,101.7c0-0.8,0-1.6,0-2.4c2.6,0,2-3.2,4-4c0.6-0.2,0.4-1.1,0.4-1.8c4.7-2.7,9.2-8.6,12.1-13.4
		c2.7-0.9,3.3-4.3,5.6-5.6c1-0.6,1-1.3,1-2.1c1.9-0.1,1.9-0.1,1.9-2c1.9-0.1,1.9-0.1,2-2.3c1.8-0.1,1.7-0.2,1.9-1.9
		c1.9-0.1,1.7-0.4,2-2.4c0.3-0.5,0.5-1,0.8-1.5c1,0.3,1.6-0.4,1.5-1.4c0.5-0.2,0.9-0.3,1.4-0.5c0.5,2.1-2,2.6-1.4,4.8
		c-0.8,1.5,0.1,3.6-1.2,4.7c-1.7,1.8-0.3,4.6-1.2,6.7c-0.7,0.7-1.5,0.1-2.3,0.2c-0.4,0.1-0.8,0.3-1-0.2c1.1-2,1.9-2.9,1.1-5.4
		c-0.8-1.9-2.4,2.1-3.1,2.7c-0.4,1-0.2,2.5-2,2.7c-0.3,0-0.4,0.6-0.5,1c-2.6,2.1-4.5,5.3-6.8,8c-1.8,2.6-5.9,4.3-6.2,7.5
		c0.6,2.6-2.3,2.1-3.3,3.3c-0.5,1.6-2.9,1.4-1.1,3.2c0.8,1.3,1.2,1.3,2,0.1c1.1-1.7,3.2-1.9,4.6-3.2c2,0.3,5.4,1,6.4,2.7
		c-1.2,2.2,3,1,2.4,3.4c-7.9-6.1-7.7-4.8-15.4,0C74.3,99.2,73.7,104.8,69.9,101.7z"/>
	<path class="st14" d="M533.5,173.3c1.7-11.7,7.1-10.8,17-11.5c1.6-0.4,2.5-1.2,2.6-2.9c0.9-7.2,9.5-8.8,12.6-14.8
		c5.2-5.3,5.8-14.8,12.4-18.4c0.1,1.8-2.4,2.2-2,4.2c-0.7,1.5-2.2,2.6-1.9,4.4l0,0c-2.1,0.6-1.9,2.2-1.9,3.8l0,0
		c-1.3,0.1-1.5,0.9-1.5,1.9l0,0c-0.9,0.4-1,1.1-1,1.9l0,0c-0.6,0-1,0.3-1,1l0,0c-1.1,0.9-2.5,1.6-2.4,3.4l0,0
		c-10.1,8.3-7.1,18.1-23.9,16.8c-1.8,0.1-3.6,0.4-4.9,1.9l0,0c-1.6,1.9-2.7,4-2.4,6.7C534.6,172,534.5,173.4,533.5,173.3z"/>
	<path class="st10" d="M275.8,173.3c2.3,1.2,3.1,5,4.2,7.4c1.2,1.9,2.9,3.5,4.1,5.5c2.6,4.5,8.1-0.2,11.7-0.6c2.5-1,6.2-3.5,8.5-2.9
		c0.5,0.6,1,1.2,1.9,1.3c0.1,0.5,0,1.1,0.6,1.4l0,0c0.2,0.7,1,1.1,0.9,1.9c-5.1-3.2-1.8-0.4-5.3,1.2c-2.4-0.1-0.5,3.2-2.8,3.8
		c-1,0.3-0.5,2-1.2,2.5c-4.6,5.1-4,6.1-9.3,0c-3.1-4.1-6.3-8-9.4-11.8c-0.8-2.3-2.3-4.3-3-6.5C275.5,175.5,275.8,174.3,275.8,173.3
		L275.8,173.3z M301.9,183.9c-1.7,2.8-15.7,5-13.5,7.5c2.3,0.6,4,7.7,6,5.2C295.3,194.6,304.9,184,301.9,183.9z"/>
	<path class="st15" d="M543.6,193.9c2.6,2.4-3.4,4.9-4.1,7.4c-1.3,1.9-2-1.1-3-1.8c-2-1.9-0.2-5-2.1-6.8c-3.4,0.4-1.7,6.8-4.9,7.2
		c-3.1,0.1-2-4-3.4-5.3c-2.2,0.5-2.7,10.8-5.6,6.7c-0.4-0.9-1.1-1.2-1.4-0.1c-0.9,2.1-3.2,1.5-2.5-0.7c0.6-1.3,2.1-1.9,2.4-3.5
		c1.7-2.7,1.7,1.6,3.2,2.4c0.3-2.7,3.8-11.5,5-5.3c0.2,1.2,0.4,2.2,1.4,3.2c0.1-0.7,0.2-1.2,0.2-1.8c2.4,2.1,2.5-4.7,5.5-5.8
		c1.9,0.8,0.7,3.8,3.1,4.4c0.6,1.2,0,3.2,1,4c0.7,0.2,0.8-0.4,0.9-0.9c0.3-1.6,2.8-1.1,2.4-3.1C542.3,194.3,543.1,194.6,543.6,193.9
		z"/>
	<path class="st10" d="M617.5,122.9c1.4-0.5,4.1-2.2,4.2,0.5c-5.2-2-11.3,15.1-14.8,7c-3.2-2.7-4.1-8.3-9-8.6
		c-2.7-2.4-6.8-2.6-9.4-5.5c-1.9-1.9-1.6,1.6-2.3,2.6c-1.5,0-0.4,1.9-1.5,2.4c-1.5-12.5,6.4-3.8,12.9-1.9c3.6,1,7.9,2.2,8.3,6.7
		c0.9,1.8,2.1-1,2.3,2.6c0.1,0.3,0.2,0.6,0.6,0.6c0.9-0.4-0.4-1.4,0.5-1.8c0.9,0.3-0.1,1.9,1.1,1.9c1.6-0.5-0.3-1.3,2.5-2.3
		C613.4,124.6,617.6,126,617.5,122.9z"/>
	<path class="st10" d="M172.1,118.5c1.3-1.6,0.6,0.7,1.4,1.1c1.1,0.5,1.2,1.6,1.2,2.4c0,2.5,2.2,4,2.5,6.3c0.1,0.7,1.2,0.7,1.4,0
		c3.5-7.7,6.6-15.8,10.1-23.4c0.7-0.7,1.1-2.7,0-3.1c-1.5,0.3-1.8,3.8-3.7,3.3c-0.2-1.8,1.9-2.2,2.6-3.7c0.3-0.4,1.6,0,1.6-0.7
		c-0.3-1.5,1.6-2,2.4-0.7c1.1,2.3-2.4,3.5-1.8,5.6c-0.5,4.7-3.6,9-5,13.4C179.7,133.8,175.3,135.4,172.1,118.5z"/>
	<path class="st7" d="M726.9,62.4c10.1-3.9,14.9-20.5,27.3-18.7c1.8,0.4,1.3-2.8,3.3-2.4c0.1,1.1,0.1,2-1.1,2.5
		c-1.2,0.6-0.5,2.6-2.2,2.8c-10-3.6-18.3,12.9-26,17.8C727.1,64.1,725.6,63.5,726.9,62.4z"/>
	<path class="st7" d="M189.9,105.6c-0.7-1.9,5-5.9-0.1-6.3c1.4-0.9,2.6-3,3.9-0.9c3.8,6,11.2,10.6,13.9,16.8
		c-3.4-0.5-3.4-5.1-6.7-5.8c-1.7-1.1-2.5-2.3-4.6-2.4c-0.4-0.1-1.1,0-1.4-0.3C193.5,105.1,191.6,105.7,189.9,105.6z"/>
	<path class="st6" d="M35.3,109.4c-1.3,3.3-2.5,0.5-2.9,2.6c-1.3,3.1-6.5-4.8-8.1-5.5c-1.1-0.6-1.8-1.3-0.7-2.5
		c-1.3-4.8-4.8-9.5-3.7-15.1c0.9,7,4.1,14.3,10.6,17.8C31.9,108.3,34.9,106.7,35.3,109.4z"/>
	<path class="st7" d="M242.3,142.6c0,0.7-0.1,1.3-1,1.4c-2.1,2.3-2.3-1.3-4.4-1.4c-2.1-0.1-3.2-2.6-5.5-2.3
		c-0.3,0.1-0.6-0.5-0.7-0.9c-5.4-4.5-10.6-10.4-16.1-15.3c-2.5-2.7-6.5-5.3-7-8.9c7,6.6,14.6,14.5,22.1,21.4
		c1.5,1.1,2.8,2.6,4.3,3.5c1.3,0.3,2.5,0.4,3.5,1.7C238.4,142.7,240.8,142.5,242.3,142.6z"/>
	<path class="st16" d="M726.4,62.9c0.5,3.7-4.2,5.5-6.2,8.2c-2.4,3.6-1.9-12-1-12.9c0.4,0,0.8,0,1.3,0.1c0,1.6,1,1.8,2.4,1.9
		C723.5,61.9,725.5,61.8,726.4,62.9z"/>
	<path class="st6" d="M525.2,191.9c-1.2,2.4-2.7,4.7-3.1,7.6c-1.1-0.7-1.1-1.5-1.2-2.3c-0.1-1.1-1.8-1.3-1.9-0.2
		c-0.2,1.6-1.7,2.2-2.4,3.5c-2.3-6.5,3.2-4.9,5.4-8.1c0.7-3.7,3-5.4,6.7-5.9c0.6,3.5-5.3,2-2,3.8
		C525.7,190.4,525.2,190.9,525.2,191.9z"/>
	<path class="st10" d="M754.3,46.6c1.6-0.1,0.9-2.2,2.2-2.8c1.2-0.5,1.2-1.5,1.1-2.5c0.3,0,0.4-0.3,0.1-0.5c0.6-2.4,2.1-4.9,2.8-7.3
		c0.2,4.4-0.7,9.3-4.3,12.5c-0.7,1.2-0.4,2.5-0.5,3.8c-1.4,0.8-2.2,2.1-1.9,3.7c0.2,1.6-0.5,2.6-2,3c-1.5-2.4,1.1-3.4,1.5-5.3
		C753.7,49.8,753.4,48,754.3,46.6z"/>
	<path class="st7" d="M584.3,120.9c2,2.7-5.1,1.2-3.8,4.8l0,0c-1.6-0.3-1.8,1.7-1.9,2.9l0,0c-2.3,1.3-1.8,4.6-4.3,5.8
		c-0.4-1.9,1.2-3,1.9-4.4c0-1.3,0.5-2.3,1.6-2.9c0.7-0.9,0.3-2.5,1.3-3.3C580.7,122.2,581.7,120.7,584.3,120.9z"/>
	<path class="st10" d="M173,118c-0.1-1.8,2.2-1.9,2.1-3.7c2,0.3,1.3-2.6,2.7-2.9c2.5-0.9,4.4-5.5,7.2-6.3l0.2,0.2
		c-2.5,4.7-7.5,7.4-10.3,11.9C174.5,117.9,173.6,118.3,173,118z"/>
	<path class="st10" d="M86.3,80.3c-2.8,4.8-7.4,10.7-12,13.3C77.3,88.8,81.5,83.3,86.3,80.3z"/>
	<path class="st10" d="M267.6,157.9c2.6,1.7,3.7,4.3,4.8,6.9c1.1,0.6,1.4,1.7,1.5,2.8c1.1,1.8,2.4,3.3,1.9,5.6
		c-0.8-1.4-2.4-2.5-2.2-4.2c-0.1-1.5-2-1.7-1.9-3.1C271.6,162.4,266.9,161.3,267.6,157.9L267.6,157.9z"/>
	<path class="st17" d="M335.3,137.7c-0.1-5,5.3-4.5,4.8,0.4C339.3,139,335.7,138.8,335.3,137.7z"/>
	<path class="st7" d="M63.7,98.9c-3.4-0.8-6.1-4.3-10-3.8c1.3-1.7,1.4-1.6,3.1-0.9C58.7,95.7,63.2,96.3,63.7,98.9z"/>
	<path class="st10" d="M261.3,150.2c2.3,0.8,5.3,5.4,6.2,7.7C264.9,156.5,262.3,153.1,261.3,150.2L261.3,150.2z"/>
	<path class="st6" d="M516.4,202c1.7,2.4-1.9,2-2.4,4c-0.1,0.6-0.8,0-1.2-0.1c0.1-0.7,0.1-1.3,0.2-2c1.3-0.5,0.9-2.5,1.5-3.7
		C515.5,200.6,515,202.4,516.4,202z"/>
	<path class="st10" d="M92.9,72.5c0,0.9,0,1.5-1,2.1c-2.3,1.3-3,4.7-5.6,5.6c-0.3-1.5,1.6-2.6,2.3-3.6
		C90.5,75.5,90.6,72.5,92.9,72.5z"/>
	<path class="st7" d="M525.8,189.5c1.8-1.1,2.9-0.3,2.9-2.9c0.1-1,1.1-1.7,0.9-2.8l0,0c1.7-0.9,1.2-3.1,2.4-4.3c0,0.6,0,1.3,0,1.9
		l0,0c-0.7,0.5-0.4,1.3-0.5,1.9l0,0C529.5,185.7,529.9,191,525.8,189.5z"/>
	<path class="st9" d="M512.6,202.5c-2.9,0.7-2.4-2.9-2.1-4.7c0.6,0.7,1.3,1,2.2,1.1c0.3,1.2-0.1,2.5,0.3,3.7
		C512.8,202.6,512.7,202.5,512.6,202.5z"/>
	<path class="st18" d="M512.6,198.9c-2,0.6-2.8-4.6-3.8-1.6c-1-0.7,0-2.4,0.9-3.3C510.9,196,513.5,196.1,512.6,198.9z"/>
	<path class="st6" d="M687,84.5c-3.3,2.3-7,3.8-11.1,4.3C679.6,87.3,683.2,85,687,84.5z"/>
	<path class="st6" d="M532,179.5c-1.2,1.3-0.7,3.5-2.4,4.3c1.4-3.5,1.7-7.4,3.8-10.6l0,0c0,0.8,0,1.6,0,2.4l0,0
		C532.8,176.9,532,178,532,179.5L532,179.5z"/>
	<path class="st10" d="M74.2,93.6c0,0.6,0.2,1.5-0.4,1.8c-2,0.7-1.3,4-4,4C69.8,96.8,73,95.6,74.2,93.6z"/>
	<path class="st7" d="M759.8,34.9c-0.1,1.8-0.8,3.3-2.1,4.5C757.6,37.4,757,35.3,759.8,34.9z"/>
	<path class="st6" d="M584.3,120.9c-1.2-0.2-2.2,0.6-3.4,0.5c0.1-1.7,2.2-1.8,3.4-2.4C584.3,119.6,584.4,120.3,584.3,120.9z"/>
	<path class="st7" d="M42.1,105.6c0.2,1.9-2.3,2.5-3.5,3.7c0.1-1,0.1-2.1,1.5-2.3C41,106.9,41,105.4,42.1,105.6z"/>
	<path class="st10" d="M96.8,68.2c-0.1,2.2-0.1,2.2-2,2.3C95,68.4,95,68.4,96.8,68.2z"/>
	<path class="st10" d="M100.7,64c-0.2,2.1-0.2,2.1-1.9,2.3C98.9,64.1,98.9,64.1,100.7,64z"/>
	<path class="st10" d="M98.7,66.3c-0.2,1.8-0.2,1.8-1.9,1.9C96.9,66.4,96.9,66.4,98.7,66.3z"/>
	<path class="st10" d="M94.8,70.5c0,1.9,0,1.9-1.9,2C92.8,71.1,93.4,70.4,94.8,70.5z"/>
	<path class="st7" d="M69,99.5c-0.7,1.8-1.2,2-2.9,1.3C67.3,100.6,67.6,98.8,69,99.5z"/>
	<path class="st10" d="M47.9,101.3c-0.5,2-2.4,2.6-1.9,0.1C46.6,101.3,47.3,101,47.9,101.3z"/>
	<path class="st7" d="M44.7,103.3c-0.3,0.8,0,2.2-1.6,1.8C43,104.1,43.1,103.1,44.7,103.3z"/>
	<path class="st7" d="M52.7,97c-0.3,0-0.6,0.1-0.9,0.1c-0.3-1.5,0.7-1.8,1.9-2C53.7,95.9,52.9,96.3,52.7,97z"/>
	<path class="st7" d="M47.9,101.3c-0.2-0.1-0.4-0.1-0.6-0.2c0.1-1.3,0.6-2,2-1.8c0,0.3-0.1,0.6-0.1,0.9
		C48.5,100.4,48.1,100.7,47.9,101.3z"/>
	<path class="st6" d="M666.9,92.2c-0.8,1.5-2.2,0.8-3.4,1C664.5,92.4,665.6,92.1,666.9,92.2z"/>
	<path class="st10" d="M51.5,97.7c0,1.6,0,1.6-1.9,1.6c0-0.1,0.1-0.3,0.1-0.4c0.7,0,1-0.3,1-1C51,97.8,51.2,97.7,51.5,97.7z"/>
	<path class="st6" d="M655.4,96c-0.6,0.8-1.5,1-2.5,1C653.4,95.9,654.4,96,655.4,96z"/>
	<path class="st7" d="M65.7,99.8c-0.8,0-1.5-0.2-2-0.9C64.4,99.1,65.6,98.3,65.7,99.8z"/>
	<path class="st7" d="M50.7,97.8c0,0.7-0.3,1-1,1C49.9,98.3,49.4,97.3,50.7,97.8z"/>
	<path class="st7" d="M104.4,60.5c-0.5,0.2-0.9,0.3-1.4,0.5C102.7,59.9,104.5,59.1,104.4,60.5z"/>
	<path class="st7" d="M584.3,120.5c0.1-1-0.4-2.2,0.4-2.9C584.7,118.6,585.1,119.6,584.3,120.5z"/>
	<path class="st6" d="M662.1,93.6c-0.3,0.6-0.8,1-1.5,1C660.7,93.6,661.4,93.6,662.1,93.6z"/>
	<path class="st6" d="M689.4,82.5c-0.3,0.7-0.7,1-1.5,1C688,82.5,688.7,82.6,689.4,82.5z"/>
	<path class="st6" d="M512.9,202.5c-0.3-0.8-0.2-1.6-0.1-2.5C513.5,200.9,513.4,201.7,512.9,202.5z"/>
	<path class="st7" d="M176.5,113.3c-0.1,0.8-0.7,0.9-1.4,1C175.2,113.5,175.8,113.3,176.5,113.3z"/>
	<path class="st7" d="M46,101.4c0,0.5-0.1,1-0.1,1.5c-0.2,0-0.5,0-0.7,0C44.9,102.1,45.1,101.6,46,101.4z"/>
	<path class="st6" d="M660.6,94.5c-0.5,0.7-1.2,0.4-1.9,0.5C659.2,94.4,660,94.6,660.6,94.5z"/>
	<path class="st6" d="M652.5,97c-0.5,0.7-1.3,0.5-2,0.5C651.1,96.7,651.8,97,652.5,97z"/>
	<path class="st10" d="M101.6,62.4c-0.3,0.5-0.5,1-0.8,1.5C100.6,63.2,100.6,62.5,101.6,62.4z"/>
	<path class="st6" d="M675.5,88.8c-0.4,0.5-0.9,0.5-1.5,0.5C674.4,88.7,675,88.8,675.5,88.8z"/>
	<path class="st10" d="M103,62c-0.3,0.6-0.9,0.5-1.4,0.4C101.7,61.8,102.6,61.8,103,62z"/>
	<path class="st6" d="M306.9,185.3c-0.6-0.3-0.5-0.9-0.6-1.4C307.1,184.1,306.9,184.7,306.9,185.3z"/>
	<path class="st6" d="M529.6,183.8c0,0.5,0.1,1.1-0.5,1.5C529.2,184.7,529,184.1,529.6,183.8z"/>
	<path class="st6" d="M667.9,91.7c-0.2,0.4-0.6,0.5-1,0.5C667.1,91.7,667.4,91.7,667.9,91.7z"/>
	<path class="st6" d="M663.5,93.1c-0.2,0.4-0.6,0.5-1,0.5C662.7,93.2,663.1,93.1,663.5,93.1z"/>
	<path class="st7" d="M178.4,111.4c-0.2,0.3-0.3,0.3-0.5,0.1C178,111.4,178.2,111.4,178.4,111.4z"/>
	<path class="st6" d="M674.1,89.3c-0.2,0.2-0.4,0.3-0.5,0.5C673.7,89.6,673.9,89.4,674.1,89.3z"/>
	<path class="st7" d="M757.6,40.8c0.3,0.1,0.2,0.4-0.1,0.5C757.5,41.1,757.5,41,757.6,40.8z"/>
	<path class="st10" d="M726.4,62.9c-0.1-0.1-0.1-0.3-0.1-0.4c0.2,0,0.4-0.1,0.6-0.1C726.7,62.6,726.6,62.7,726.4,62.9z"/>
	<path class="st6" d="M687.5,84c-0.2,0.2-0.3,0.3-0.5,0.5C687.2,84.3,687.3,84.2,687.5,84z"/>
	<path class="st6" d="M578.6,124.8c-0.1,0.2-0.3,0.4-0.4,0.5C578.3,125.1,578.4,124.9,578.6,124.8z"/>
	<path class="st6" d="M688,83.5c-0.2,0.2-0.3,0.3-0.5,0.5C687.7,83.8,687.8,83.7,688,83.5z"/>
	<path class="st7" d="M189.3,100.7c0,0.3-0.2,0.4-0.5,0.4C189,101,189.1,100.9,189.3,100.7z"/>
	<path class="st6" d="M529.1,185.7c-0.1,0.2-0.3,0.4-0.4,0.5C528.8,186.1,529,185.9,529.1,185.7z"/>
	<path class="st7" d="M102.6,61.9c-0.2,0-0.4,0-0.5,0C102.2,61.6,102.4,61.6,102.6,61.9z"/>
	<path class="st6" d="M336.2,134.4c-0.2,0.2-0.3,0.3-0.5,0.5C335.8,134.6,336,134.4,336.2,134.4z"/>
	<path class="st0" d="M817.1,85.9c-1.1,1.6-1.1-0.5-1-1.4c0.3,0,0.6,0,1,0l0,0C817.1,84.9,817.1,85.4,817.1,85.9z"/>
	<path class="st7" d="M817.1,84.5c0-0.4,0.3-1.1,0.7-0.6C817.8,84.5,817.3,84.4,817.1,84.5z"/>
	<path class="st10" d="M18.1,130.1c-0.1,0.9-0.7,1.5-1,2.3l0,0c-1,0.6-1.7,1.5-2.4,2.4l0,0c-0.7,0.4-0.8,1.6-1.9,1.4
		C12.7,134.4,16.4,130.7,18.1,130.1z"/>
	<path class="st10" d="M9.9,138.7c-0.3,2.2-3.2,4.5-4.9,5.7C5.7,142,7.6,139.3,9.9,138.7z"/>
	<path class="st10" d="M12.8,136.3c-0.4,1.2-0.7,2.3-2.3,2C10.7,136.6,10.7,136.6,12.8,136.3z"/>
	<path class="st10" d="M21.4,126.7c-0.4,1.5-1.2,2.6-2.8,2.9C18.8,127.9,20.3,127.5,21.4,126.7z"/>
	<path class="st10" d="M4.1,144.9c-0.2,1.7-0.2,1.7-1.9,1.9C2.3,145.7,3.6,145.6,4.1,144.9z"/>
	<path class="st10" d="M24.7,123.3c0.1,1.4-1.3,0.9-1.9,1.5C22.9,123.5,23.8,123.4,24.7,123.3z"/>
	<path class="st10" d="M22.9,124.8c0.1,1.1-0.2,1.9-1.5,1.9C21.5,125.7,22.2,125.2,22.9,124.8z"/>
	<path class="st10" d="M2.2,146.9c0,0.4-0.1,0.8-0.5,1C1.8,147.4,1.8,147.1,2.2,146.9z"/>
	<path class="st10" d="M18.6,129.6c0,0.3-0.2,0.4-0.4,0.5C18.2,129.8,18.3,129.7,18.6,129.6z"/>
	<path class="st10" d="M4.7,144.4c-0.1,0.3-0.2,0.4-0.5,0.5C4.2,144.7,4.4,144.5,4.7,144.4z"/>
	<path class="st19" d="M782.5,60c-0.2,1.5,1.5,1.4,1.9,2.3c0.1,1.8,0.1,1.8,1.9,2l0,0c-0.3,1.3,0.7,2.3,2,2.4c0,0.5-0.1,1.1,0.5,1.4
		c3.6,3,4.7,8,8.1,10.5c0.3,1.9-1.7,2.4-2.5,0.6c-2.4-5.1-7.2-8.2-10.1-12.7c-0.2-0.8-0.5-1.6-1.6-0.8c-1.4,0.2,0-2.6-1.2-3.1
		c-1.5-1-1.9-2.9-3.5-3.7c-2.6-3.3-4.7-7.1-8.3-9.6c-0.2-0.1-0.5-0.3-0.5-0.4c0.5-1.7-1.2-3.1-0.7-4.8c1.4,0.1,1.2,2.4,2.9,1.9
		c0,0.6,0.3,1,0.9,1c1.5,1.5,1.8,3.8,3.9,4.8c0.1,1.3,0.5,2.2,1.9,2.4c-0.1,1.6,0.5,2.2,2,2.3c0,0.4,0,0.8,0.4,1
		c0,1,0.6,1.4,1.5,1.4C782.2,59.4,782.1,59.9,782.5,60z"/>
	<path class="st20" d="M817.6,92.1c-0.6,1.2,1.5,2,0.4,2.9c-2-0.1-2-0.1-2.7-2c0.1-1.8-2.4-1.6-2.1-3.3c0.4-1.8-1.5-2-2.2-3.3
		c-1.2-1.3-3.6-9.6-5.6-7c-0.3,0.8-1.1,0.9-1.8,0.8l0,0c0-2.8,0.3-6-1.9-8.2c-0.8-1.2-0.3-2.6-0.6-3.9c-0.3-1.6-0.3-1.6,1.5-1.8
		c1.1,3.2,3.7,5.7,4.7,8.8c2.6,2.3,2.9,6.5,5.8,8.5c-0.1,1.5,0,2.9,1.5,3.7C815.3,89.1,816.5,90.6,817.6,92.1z"/>
	<path class="st21" d="M802.7,66.3c-4.1-0.8,0.7,11.5,1,13.9l0,0c5.2,17.4-11.6-9.3-14.8-12c0.8,0,1.5,0,2.3,0
		c-0.2,0.8,4.7,6.4,5.6,6.2c2,0.7,1.1,4.4,4.1,4.8C800.1,75.5,795.4,52.1,802.7,66.3z"/>
	<path class="st22" d="M800.2,61.9c-5.2,2.7,1.3,12.3,0.5,17.3c-3-0.4-2.1-4.1-4.1-4.8c-0.8,0.2-5.7-5.4-5.6-6.2
		c1-3.2,5.8-3.5,6.6-7.3C798.6,61.5,799.6,61.2,800.2,61.9z"/>
	<path class="st10" d="M771.5,46.1c-3-1-5.4-4.7-6.9-7.8c-0.4,0.3-0.3,1.1-1,1c-1.7-0.6,0.4-2.6-0.8-3.8
		C766.3,37.7,769.2,42.4,771.5,46.1z"/>
	<path class="st10" d="M817.5,91.7c-1.6-1-2-2.9-2.8-4.5c-1.5-0.9-1.5-2.3-1.5-3.7C814.9,85.9,817.3,88.8,817.5,91.7z"/>
	<path class="st10" d="M786.3,64.4c-1.8-0.1-1.8-0.1-1.9-2C785.2,62.9,786.4,63,786.3,64.4z"/>
	<path class="st10" d="M760.4,33.6c1.4-1,2,0.9,2.5,1.9l-0.1,0.1C761.3,35.9,761.5,34.1,760.4,33.6z"/>
	<path class="st10" d="M778.2,54.3c-1.1-0.2-1.9-0.8-1.8-2C777.4,52.5,778.1,53.1,778.2,54.3z"/>
	<path class="st10" d="M780.1,56.6c-1.2-0.1-2.1-0.4-1.9-1.9C779,55.2,780.1,55.4,780.1,56.6z"/>
	<path class="st10" d="M776.3,51.9c-0.7-0.6-1.8-0.8-1.9-2C775.8,49.8,776.1,50.7,776.3,51.9z"/>
	<path class="st10" d="M782.1,59c-0.9,0-1.5-0.4-1.5-1.4C781.2,58,782,58.1,782.1,59z"/>
	<path class="st10" d="M772.4,47.1c-0.6,0-0.9-0.4-0.9-1C772.2,46.1,772.4,46.4,772.4,47.1z"/>
	<path class="st10" d="M786.9,66.2c-0.8-0.4-0.5-1.2-0.6-1.9C787.1,64.8,786.8,65.6,786.9,66.2z"/>
	<path class="st10" d="M788.8,68.1c-0.6-0.3-0.5-0.9-0.5-1.4C788.9,67.1,788.8,67.6,788.8,68.1z"/>
	<path class="st10" d="M788.3,66.7c-0.4,0-0.8-0.1-1-0.4C787.7,66.2,788,66.3,788.3,66.7z"/>
	<path class="st10" d="M780.6,57.6c-0.4-0.2-0.5-0.6-0.4-1C780.5,56.9,780.6,57.2,780.6,57.6z"/>
	<path class="st10" d="M772.9,47.6c-0.3-0.1-0.4-0.2-0.5-0.5C772.7,47.2,772.8,47.3,772.9,47.6z"/>
	<path class="st10" d="M782.5,60c-0.2-0.1-0.4-0.3-0.4-0.6C782.3,59.6,782.4,59.8,782.5,60z"/>
	<path class="st10" d="M774.4,49.9c-0.3-0.1-0.4-0.2-0.4-0.5C774.1,49.5,774.2,49.7,774.4,49.9z"/>
	<path class="st23" d="M91,102.7c0.6-2.4-3.6-1.2-2.4-3.4c-0.9-1.6-4.4-2.4-6.4-2.7c-1.4,1.3-3.5,1.4-4.6,3.2
		c-0.8,1.3-1.3,1.3-2-0.1c-1.7-1.8,0.6-1.6,1.1-3.2c5.9-2.5,1.3-2.4,4.4-5.8c4.6-3.7,7.7-9.2,11.8-13c0-0.4,0.1-1,0.5-1
		c1.8-0.1,1.5-1.6,2-2.7c0.5-1.2,1.7-1.8,2.1-3.1c1.6-1,1.7,4.1,0.4,4.8c-1.9,1.6,2,1.5,2.8,1c0.2,0.5-0.2,1.2,0.3,1.5
		c2.5,1.5,1.3,4.4,1.6,6.7c-2.4,0.5-1.3,7.1-1.7,9.2c0.6,1,2,0.6,2.7,1.3c0.4,0.4,0.6-0.8,0.3-1c-2.1-1.5-1-4.1-1.3-6.2
		c0.4,2.8,3.1,5.5,1.5,8.5c-6.6-4.2-1.3,8.1-4.8,10.9c-0.7,3.8-0.1,8.2-0.9,11.8c-2.7,3.3-0.5,8.5-2,12.1c-0.7-2.4,2-10.3-2.5-8.6
		c-1.4,0.5-0.7,2.2-0.9,3.4c-0.5-1.2-1-2.4-1.8-3.4c4.5-0.7-2.2-7.7-4.4-8.3c0,0.8,0,1.5,0,2.1c-3.9-4.5-4.1,1.9-3.9,4.8
		c-1-0.9,0.2-8.1-2.2-6.6c-6.9,6.7-15,12.2-21.8,19.1c-17.5,16.2-40.6,24.4-61.4,35.5c-0.9-5.2-0.3-10.4-0.5-15.7
		c-0.5-2.7,1.7-2.2,3.3-3.5c-0.2,3.5,5.4-2.2,6-3.6c0.3-2,3-1.8,3.6-3.6c0.5-2.6,3.3-3,4.7-4.4c-0.1-1.8,1.2-1.7,2.3-2
		c4.6-1.6,9.4-2.8,14.5-2.2c2-0.3,3.6-2.4,4.9-1.7c1.5,0.1,2.9,0.1,4.2,1.2c1.2,1,2.7,0.6,4.1,0.3c1.8-0.8-1.2-3.2-0.7-4.8
		c-1.2-4.5-5.1-0.9-7.3-2.5c-1.3-1.4-3.6-1.2-4.9-2.1c-0.3-1.6-1.8-1.3-2.7-1.6c2.6-5.3,9.1-9.4,13.7-13.3c0.2-0.1,0.5-0.3,0.6-0.4
		c0.1-1.9,2.6-1.8,3.1-3.3c0.2-0.5,1.2,0,0.8,0.5c-0.7,0.6-0.2,2.2,0.8,2.2c0.7-0.1,0.5-0.7,0.3-1.2c-0.5-2.6,2.3-4.2,3.6-6.3
		c0,1.7-0.3,3.3-1.5,4.6c-1.9,5.1,7.1,7.7,9.6,11.3c0.7,0.7,2.9,0.7,3.4-0.4c3.1-4.2,9.4-6.8,11-11.8c0.5,0.2,0.9,0.5,1.5,0.5l0,0
		c1.5,4.7,3.8-1.8,7,1.3c1.6,1.6,1.7-1.9,3.5-1.3c2.7-0.1,4.1,3,7.1,2.1c2.4-0.3-0.5-2.5-0.4-3.7C92.9,102.8,91.5,103.6,91,102.7z"
		/>
	<path class="st24" d="M-2.5,169.4c18.1-9.6,37.8-17.1,54.2-29.4C56,137.8,82,110.6,82,116.2c-4.8,2.8,2,19.8-3.5,22.2
		c-0.5,3.4-5.5,3.7-5.4,7c1.2,4.9-12.1,4.8-11.5,10.1c-1.1,1.1-1.7,2.8-3.1,3.8c-1,0.5-0.3,2.4,0.8,2c1.6,0.4,2.5-0.5,3.8-1.4
		c4.4-1.3,8.6-0.2,12,2.6c0.9,0.8,2.4,0.2,2.8,1.5c1,3.5,0.3,8.2-4.3,7.6c2.3-4.4-5.1-0.5-4.3-3.2c-0.3-1.3-4.5-1.4-5.9-0.9
		c-0.3,0.2-0.9,0.3-1.2-0.2c3.9-8-19.4,9.6-21.3,10.3c-13.9,8.8-29.8,13.8-44,22.1C-2.6,189.6-3.9,179.2-2.5,169.4z M24.8,177.5
		c-0.5-2-5.3-8.9-7.6-5.6c-0.4,0.5-0.8,1.2-1.4,1.2c-1.6,0.1-6.6,3.2-5.3,5c3.6,0.8,8.2-1.9,12,0.9
		C24.2,179.5,24.9,179.4,24.8,177.5z"/>
	<path class="st20" d="M2.3,218.3c-0.4,0.9,2,1.1,0.5,1.5c-1.8,0.1-0.7,2.3-2.1,3.2c-0.9,0.8-0.4,2.1-0.9,3.1
		c-1.8,0.2-1.5,2.1-2.8,2.8c1.2-5.9-0.7-13.1,1.4-18.5c5.6-5.1,4.7-0.8,7.8-3.4c1.5-3,5.4-1.2,7.6-3.9c1.3-1.6,2.1,0.2,3.2,0.9
		c1.8,0.3,0.2-2.9,3.1-1.7c3.1,1.1,7.8-2.5,9.7,1.4c1.3-4.3,0.5-8.6,0.9-12.8c2.9,1,1.4-1.4,4.9-0.9c1.7-0.4,4.8,1.2,5.7-0.7
		c1-2.4,3.9-2,5.6-3.5c2.1,0.8,4,0.6,4.9-1.8c1.1-1.7,2.7,0.2,2.4,1.6c0.3,2.3,1.3,4.3,1.9,6.3l0,0c0.1,0.9,0.3,1.7,1.4,2
		c0.9,2.2,2.1,5.3,4.2,6.2c-0.1,0.5-0.2,1-0.4,1.5c-2.2,0.1-1,3.2-2.3,4.2c-0.9,0.7-1.3,1.7-1.3,2.7c-0.4,4.1-4.8,1.9-4.1-1.2
		c0.2-3.7-0.8-8.4-2.7-11.1c-0.2-1.7-0.9-3.1-2.3-4.3c-1.6,2.2-0.7,4.9-2.6,7.1c-1.5,1.7-0.2,11.6-3.8,8.9c-0.9-2.5-2.8-4.6-3.1-7.3
		c-0.1-1-0.3-2.1-1.6-2.5c0.1-1.5-0.5-2.7-1.8-4.3c-2.4,5-2.8,9.5-2.8,14.9c-1.2,0-1.7,0.8-2,1.9c-0.4-0.3-0.7-0.6-0.8-1.1
		c0-0.1,0.1-0.6-0.2-0.3c-1.2,2.6-1.3-2.2-2.8-2.5c-0.4,0.5-0.2,1.1-0.2,1.6c-7.6,2.1-4.3,11.8-8.2,14.8c-3.2,2.8-3.9-24.9-9-9.8
		c-0.5-1.1-1.6-0.9-2.4-0.7c-1.3,0.8-0.4,2.9-0.8,4.1C5.7,208.4,3.5,214.3,2.3,218.3z M39.7,191.4l0.1-0.1l-0.1-0.1
		c-0.1,0.1-0.1,0.1-0.2,0.2C39.6,191.3,39.7,191.3,39.7,191.4z"/>
	<path class="st25" d="M55.5,189.6c-2-1.2-0.5-8.3-3.8-5.6c-0.8,2.4-2.8,2.6-4.9,1.8c-1.7,1.5-4.6,1.1-5.6,3.5
		c-0.3,0.8-0.6,0.9-1.5,0.9c-2.4,0.3-5.4-1.3-7.2,0.8c-0.5,0.9-1.2-0.3-1.9-0.1c-0.4,4.2,0.4,8.5-0.9,12.8c-1.1-2.9-4.6-1.6-6.9-1.4
		c-1.7,1-5-1.9-5.1,1.3c-1.1,1.9-2.6-2.8-4.1-0.5c-2.2,2.6-6.1,0.9-7.6,3.9c-0.9,0.9-1.7,1.5-2.8,0.6c-2.6,0.2-6.4,3.1-5.9,6.3
		c-1.2-4.1-0.1-9-0.4-13.4c1.8,0.4,2.6-1.2,3.9-1.9c1.7-0.1,3-1.1,4.3-1.7c2.3-1,5.5-1.5,6.9-3.8c1.5-0.5,3.3-0.9,4.6-1.9
		c2.5,0.1,9.4-6.4,9.5-2.8c0.1,2.4,3,2.8,3.7,0.8c-0.6-1.2-2.6-0.7-3-2.4c1.7,0.1,2.1-1.9,3.7-2c4.5-0.2,6.6-5.2,11-5.4
		c1.7-0.3,1.4-3.2,3.3-3.5c2.7,0,6.8-6.7,8.2-2.9c0.6,1.9-0.9,9.3,1,9.3c1.8-0.4,0.1-3.1,1.4-4.3C55.5,181.9,55.5,185.7,55.5,189.6z
		"/>
	<path class="st19" d="M55.5,178c-1.3,1.2,0.4,3.9-1.4,4.3c-1.9,0.1-0.4-7.4-1-9.3c-1.4-3.8-5.5,2.9-8.2,2.9
		c-1.9,0.3-1.6,3.2-3.3,3.5c-4.4,0.2-6.6,5.2-11,5.4c-1.5,0.2-1.9,2.1-3.7,2c0.4,1.8,2.4,1.2,3,2.4c-0.7,2-3.6,1.6-3.7-0.8
		c0-3.6-7,3-9.5,2.8c-1.3,1-3.1,1.4-4.6,1.9c-1.5,2.3-4.6,2.8-6.9,3.8c-1.4,0.7-2.7,1.7-4.3,1.7c-1.3,0.7-2.1,2.3-3.9,1.9
		c8.8-7.9,23.4-11.6,34.4-17.4c8.2-5.1,17-9.7,24.5-15.7C55.5,170.9,55.5,174.5,55.5,178z"/>
	<path class="st8" d="M-3,228.9c1.3-0.7,1-2.6,2.8-2.8c0.3,2.6,0.2,5.2-2.8,5.9C-3.9,231.1-4.5,229.6-3,228.9z"/>
	<path class="st23" d="M-2.5,215.5c0.5,2.7-0.3,5.4,0,8.2C-3.3,221.1-3.5,217.8-2.5,215.5z"/>
	<path class="st26" d="M760.5,33.7c11.7,16.5,25.1,39.5,43.9,52.5c-2.1-25.4,24.9,26.7,10.5,43.4c-4.7,1.2-9.2-7.4-15.3-3.6
		c-8.9,3.9-15.1-7.4-21.5-12c-10.8,0.5-17.4,18.6-28.4,20.7c-2.5,2.4-8-3.2-8.5,3.5c-14.6,9.7-34.1,40.8-30.7,7.8
		c0.3-2.8-4-0.9-3.8-3.4c0.2-2.1-1.9-1.5-2.8-2.3c-5.7-0.1-4.8,9.8-7.3,13.6c-4,6.5-6.4-21.1-9.2-5.1c-4.7,7.3-1.9,14.9-7.2,20.7
		c-23.8,9.8-22.5-7.7-27.9-26.4c-9.2-6.1-3.5,22.1-11,12.6c-4.3-14.3-6.6-7.5-8.8,2.2c-12.4-16.6,60-31.6,71.6-38
		c24.8,0.8,27.1-0.1,28.8-25.3c0.4-7.7,10.7,1.7,8.4-6.4c7.3-11.8,8.4-26.2,14.4-38.4C756.8,58.9,759.8,36.8,760.5,33.7z
		 M704.1,127.4c-2.4,3-9.9,4.8-10.2,8.1C700,146.6,703.4,135.4,704.1,127.4z"/>
	<path class="st19" d="M813.7,130.1c1.7-0.3,2.2-2.7,4.3-1.5c1.1,1.3,0,3.2,0.9,4.7c-1,0.4-1.8,1.4-3.1,1.1
		C816.1,132.4,813.5,132,813.7,130.1z"/>
	<path class="st27" d="M813.7,130.1c0,0.6,0,1.4,0.6,1.7c2.9,2.8,1,9.1,0.9,12.9c-1.1-0.5-1,1.1-1.4,1.7c-1.2,3.6-2.6-1-4.8-0.4
		c0-1.6-0.2-1.9-1.6-2.1c0.2-2.1,0.1-3.5-2.4-2.2c-3.6,1.3-1.2,6.1-4.2,7.6c-3.6-1.1,0.5-8.6-3.9-9.2c-0.4-1.2-4.2-7.3-4.2-3.3
		c0.9,1.7-1.3,1-1.5,2.3c-0.5,2.9-1.5,6-0.7,8.9c-1.9-0.4-1.2,2.2-2.8,2.3c-2.1-0.1-0.5-5.7-3.1-3.4c0-2.3-3.2-3.7-3.5-0.8
		c-0.2,0.8,0,2-0.9,2.4c-1.7,0.8-1.3,2.4-1.4,3.8c-0.8,1.2-3.2,5.7-3.4,1.8c-0.9-2.5-0.9-4.9-1.3-7.7c-1.1-1.5-2.9-5.2-5.3-3.6
		c-7,4.7-0.7,21.9-10.9,22.7c-9.8-0.2-19.5-1-29.3-0.1c-4.2-0.2-22.1,2.6-12.5-4.7l0,0c9-7,16.9-16.8,26.5-23
		c2.7-3.8,8.3,1.3,11-3.9c6.4-3.9,18.5-21.6,24.8-20c6.3,3.7,12.4,16.7,20.2,13.7C808,123.5,806.6,127,813.7,130.1L813.7,130.1z"/>
	<path class="st8" d="M630.3,152.2c0.2,1.5-0.3,7.1,2.1,5.8c2.9-2.8-0.2-8.1,3.6-10.7c2.5-2,4.3,6,5,7.8c0.7,1.2,2,1.9,2.3,3.4
		c1.8-0.6,0.2-3.7,2.4-3c0.6,0.3,0.5-0.5,0.5-0.8c0.3-3.8-0.1-16.1,6.1-11.5c2.7,9.5,5,19.2,8.3,28.6c1,2.4,3.4,1.3,4.8,0
		c4.8-1.3,10.5,0.3,14.8-2.2c2.8-0.7,0.1-5.4,3.3-3.6c0.2,1.3,0.3,2.7-0.1,3.9c-0.3,0.1-0.8,0-0.9,0.2c-1.6,2.8-6.2,0.1-7.5,3
		c-3.8,1.1-10.6-1.2-12.8,2c-2.2,0.6-3.4-0.2-3.8-2.4c0.1-2.4-2.2-4.3-1.9-6.9c-0.1-1.6-0.5-3.1-1.7-4.2c-0.7-3.1,0.1-6.3-2.2-8.8
		c-3.8-9.7-9.3,8.4-4.9,10.6c2.4,1.5-2.3,3.3-3.6,3.9c-2.9,0.7-1.4-3.5-3.3-4.8c-1.2-1.9-0.8-9.8-4.5-7.3c-3.2,2.6-0.4,9.1-4.6,9.9
		c-2.9-0.6-1.6-5.6-3.8-7.6c-0.8-1.3,0.1-4.9-2.5-3.5c-4,4.3-2.4,11.8-5.5,16.8c0.1,4.3-5.1,7.4-4.5,1c-0.7,0-0.3,0.7-0.7,0.8
		c-0.8-2.4-1.3-4.9-1.8-7.7c-1.8,1.6-3.6,2.9-3.2,5.4c0.5,1.9-1.4,4.6,1.3,5.4c0.9,0.3,0.6,1.1,0,1.4c-7.3,3.5-4.7-3.3-7.9-7.9
		c-0.4-1.2,0.8-5-1.3-4.5c-0.3-1.4,0.8-1,1.5-1.1c3.2,1.9,1.3,7.6,4,7.9c0.3-2.7,2.5-4.4,2.1-7.4c-0.5-1.8,2.3-7.9,4.1-4.5
		c0.4,1.5,0.2,3.8,0.7,5.1c2.4,0.2,0.7,3.8,2.3,4.5c0.9,0.2,0.8-1,1.3-1.5c2.6-0.7,1.3-4,2.5-5.7c2.4-2.7,0.6-6.7,2.3-9.5
		c1-1.4,1.1-2.7,1.2-4.2c-0.3-2.4,2.6-2.4,4.2-1.4C628.4,148.7,628,151.8,630.3,152.2z M608.4,175.7c-0.9,0-0.9,1.3,0.1,1.3
		C609.4,177.2,609.5,175.6,608.4,175.7z"/>
	<path class="st8" d="M601.9,169.3c-2.6,3-1.6,7.2-4,10.5c-0.7,1-0.6,2.7-0.7,4.2c-0.1,0.9,0.1,2-1.3,2.2
		c-4.5,0.6-3.6-16.3-8.4-20.5c-0.8,1.1-0.7,2.2-0.9,3.2c-3.4,2.5,0,9-4.2,10.6c-0.1-6.3,2.9-12.1,2.5-18.4c0-1,0.2-1.7,1.3-2
		c0.3,1-1.4,3.6,0.8,2.9c3.4,0.8,4.8,6.4,6.5,9.3c-1.4,3.2,0,9.2,2.5,11.9c1.8-2.2,0-5.3,1.7-7.4c2.3-2.7,0.4-7.1,3.8-8.8
		C601.7,167.7,602.1,168.5,601.9,169.3z"/>
	<path class="st15" d="M582.4,179.5c0.2,0,0.4,0,0.5,0c0.1,3.1-0.6,5.9-3.2,2.3c-1-0.3-1.1-1-1.1-1.9c-0.1-1.2-0.1-2.4-1.4-3
		c-1-1.3-0.4-3.4-1.3-5c-0.6,1.5-2.8,1.7-2.8,3.9c0,1.6-1.3,3.1-1.6,4.9c-1-1.9-3-2.7-4-4.7c-0.4,3.9-6.6,12.3-4.7,3.4
		c0.2,0.4,0,1.1,1,1.5c0-3.3-0.6-4.9,2.5-6.5c1.2,0,3.3-1.9,4.3,0.2c0.3,0.6,0.9,0.7,1.2,0c0.3-0.8,0.4-1.7,0.6-2.6
		c0.2-1.1,1.8-0.5,2-1.7c2.9-3.2,5.7,2.7,4.7,5.4c0,0.4-0.1,1,0.3,1.1c1.8,0.7,1.6,2.2,1.7,3.6C581.2,182.1,582.6,180.6,582.4,179.5
		z"/>
	<path class="st8" d="M562.7,179.4c-0.7,1.1-0.4,2.3-0.4,3.4c-1.7-2.8-2.5-2.3-3.9-4.9c-4.6,4.8-3.8,8.2-6.7,14.1
		c-1.5,4.7-5.2-7.9-4.2-9.3c0.3,0.2,0.6,0.4,0.9,0.6c-0.2,1.2,0.6,1.5,1.5,1.9c0,1.9-0.2,3.8,1,5.8c0.9-2.4-0.1-4.9,1.5-6.9
		c2.4-2.5,0-7.1,2.9-8.8c0.5-1.8,3.8-5.8,5.3-3c0.6,1,0.4,2.4,1.8,2.8C563,176.5,562.7,178,562.7,179.4z"/>
	<path class="st28" d="M685.6,156c1.2-4.9,4-1.9,4.6-4.3c0.1-0.4,0.5-0.5,0.9-0.5c1.3,1.8-0.3,4.2,1.2,5.8c1.3,1.5,2.1,5.6-0.5,5.6
		c0.1-1.5-0.9-2.9-0.1-4.4c0.1-0.2-0.1-0.7-0.3-0.8c-1.3-0.7-2.3-4.6-3.7-1.8C687.9,162,685.3,163.6,685.6,156z"/>
	<path class="st29" d="M548.3,183.3c-2.1-0.7,0.7-2.9-1.4-3.7c-1.7-0.7-1.5,2.4-3.5,1.9c-2.2-0.8-2.3-0.9-0.9-3.6
		c0.6-0.1,0.4,1.5,1.3,0.6c1.3-1.2,2.6-2.2,4.1-0.4c0,0,0.2-0.2,0.4-0.2c1.1-0.6,0.9,1.5,0.4,2c-1.4,1.3,0.6,2.1,0.9,3.4
		C549.3,183.3,548.8,183.3,548.3,183.3z"/>
	<path class="st8" d="M691.8,162.6c1.3,0.4,2.4,0.5,3.6-0.3c3.4-2.1,3.5,5.9-0.2,4.7C696.9,163.5,687.6,166.6,691.8,162.6z"/>
	<path class="st28" d="M662.3,175.1c0.8-2.6,10.2-1.9,12.5-0.9C671.4,176.3,666.3,174.8,662.3,175.1z"/>
	<path class="st8" d="M543.6,193.9c-1.3,1.1-2.7,0.2-2.6-1.5c1.2-2.1-0.1-4.6,1-6.7c0.9,0.2,1.4-0.2,1.6-1.1
		C544.8,187.7,542.9,190.8,543.6,193.9z"/>
	<path class="st15" d="M512.8,205.9c1.7,1,1.1-1.5,3.8-1.9c1.1,1.2,0.1,2.4-0.1,3.6c-0.2,1.8-2.3,0.8-2.8,2.1
		C512.8,208.4,511.7,207.4,512.8,205.9z"/>
	<path class="st28" d="M654.9,161.5c2.6,2.5,1,6.4,3.1,9.2c0.4,0.6,0.7,1.2,0.5,2C655.5,170.5,654.8,165.2,654.9,161.5z"/>
	<path class="st28" d="M683.6,169.7c0.2-2.8-0.1-5.5,0.2-8.3c0.5-0.1,1.1-0.1,1.6-0.1C684.4,163.6,687.3,169.7,683.6,169.7z"/>
	<path class="st28" d="M675.1,173.1c1.3-2.9,5.9-0.2,7.5-3c0.1-0.2,0.6-0.2,0.9-0.2C682.7,174.2,678.4,172.7,675.1,173.1z"/>
	<path class="st8" d="M543.5,181.5c2,0.5,1.7-2.6,3.5-1.9c1.7,1,0.7,2.3-0.6,2.5c-0.2,1.6-1.8,1.2-2.6,1.8c-0.1-0.7-0.1-1.5-0.2-2.2
		C543.5,181.7,543.5,181.5,543.5,181.5z"/>
	<path class="st8" d="M685.4,161.3c-0.5,0-1.1,0.1-1.6,0.1c-0.1-1.6-1-6.4,1.9-5.4C685.6,157.8,685.9,159.6,685.4,161.3z"/>
	<path class="st28" d="M691.5,165.1c1.4,0.2,4.9-0.5,3.8,1.9C693.5,168,691.2,167.7,691.5,165.1z"/>
	<path class="st15" d="M508.5,197.1c1.1,0.9,0.4,6.1-1.8,5.4c-0.1-1,0-1.8,0-2.8C507.7,199.1,508.7,198.6,508.5,197.1z"/>
	<path class="st28" d="M601.9,169.3c-1.4-6,1.6-6.2,1.2,0C602.7,169.3,602.3,169.3,601.9,169.3z"/>
	<path class="st17" d="M543.5,181.7c0.1,1.4,0.9,4.4-1.5,4C542.2,184.3,541.6,182.2,543.5,181.7z"/>
	<path class="st28" d="M509,200.1c0.3-1.1-0.7-3.5,0.6-3.8c1.7,0.6,0.3,2.5,0.5,3.7C509.8,200,509.4,200.1,509,200.1z"/>
	<path class="st28" d="M384.3,257.1c0.4,0.1,0.7,0.2,0.9,0.5l-0.1,0.2c-0.3-0.2-0.6-0.3-0.9-0.5
		C384.2,257.3,384.3,257.2,384.3,257.1z"/>
	<path class="st7" d="M617.4,123.3c0.1,1.3-1.1,1.5-1.9,2C615.6,123.5,615.6,123.5,617.4,123.3z"/>
	<path class="st30" d="M329.6,212.6c0.5,6.5,7.4,11,8.5,17.4c0.3,1.5,0.7,1.3,2,0.6c9.5-7.2,16.4,3.5,20.6,10.9
		c-6.3-0.9-10.4-14.1-18.2-9.4c-1,1.4-1.9,0.2-3.2,0.3c-4.3,0.3-8.8,5.6-12.7,2.1c-4.5-6.4-8.3-14.8-13.3-19.9c-1-3-4.2-4.4-6.9-3.1
		c-3.1,2.2-7.1,0.2-10.2,2c-1.2,1.1-2.7,0.6-4.1,0.5c-1-1.9-2.9-1.1-4.4-1.3c-6.9-0.1-9.5-7.3-14.8-10c-5.4-1.2-10.6,2.7-15.6,1
		c-8.9-6.7-18.1-13.1-25.2-21.5c-3-1.4-4.9-5.2-8.6-4.8c-11.6-1.8-10.8-16.3-20.1,1.7c-2.1,0.6-1.1,2.9-2.5,4c-6.3,7-6.2,3-8.5,13
		c0.3-8.2-9.9-2.2-13.9-6.1c-2.1-2.8-9.2-9.6-9.8-3c-1.7,0.1-1.8-2.1-1.9-3.4c-4.2-2-7.2-10-12.2-9.5c-5.1,6.6-16.3,10.2-17,18.9
		c-1.9,9.9-1.6-11.4-3.6-8.5c-1.3-1.5-0.4-3.6-2.3-4.7c-4.7-2.8-5.8,4.7-6.6,7.6c-1.5,1.2,0.6,1.7-0.6,2.8c-1.5,0.9-0.5,3.4-2,4
		c-0.7-0.7-0.7-1.5-0.8-2.4c0-0.5,0.1-1.1-0.4-1.3c-2.6-1.9,0.3-8.5-4.2-8.8c-1.4-3.1-4.3,3-5.7,3.8c0.2-6.3-1.3-2.6-4.4-1.1
		c-2.9,1.2-1.3,4.1-2.8,6.1c-2.2-0.9-1-4-1.6-5.8c0.1-1.7-2.4-4.1-3.7-2.1c-2.5-2.1-2.4,6.6-0.2,3.7c0.9,2.4-1.9,2.9-1.8,5.1
		c-0.2,1.1,0.1,2.4-1.3,3.1c-0.7,0.9-0.8,6.5-2.7,3.8c-1.1-3.4,4.4-7.5,1.9-10.3c-1.9-0.7-6.6-2-6,1.4c0-0.3-0.5,0.2-0.5,0.5
		c-4.1,1.2-1.1,7.3-3.4,10c-4.3,1.4-1.2-6-3.7-7.8c-3.9-7.2-3.5-1.8-7,0.6c-3.5-1.2,0.8,9-4.1,7.2c-0.8-2.2,1-5-1.9-5.8
		c-0.3-2.2,0.1-2.4-2.4-2.4c-0.4-0.7,0.1-2.7-1-2.4c-0.3,0.1-0.1,0.3,0.1,0.4c-1.7,1-2.9,0.2-3.1,2.6c-1.4,5.9-4-1.2-4-3.8
		c-1.9-2-2.1-1.2-0.3-3.1c1.4-3.7-2.2-18.2,4.5-15.1c1.3,0.6,5.3,3,6.1,1.8c0.2-0.2,1.3-0.3,1.1,0.2c-0.6,2.7,6.9,2.6,7.6,4.1
		c0.5,0.6,1.3,0.4,1.9,0.2c0.4-0.2-1.1-0.2-0.3-0.9c6.9,1.5,1.7-11.1,6-12.5c0.8,0.2,1.7,0.8,2.5,0.5c3.1-2.3,8.8,4.9,9-0.8
		c9.6-7.3,22.4,8,31.5,11.3c-0.3,1.8,0.7,1.1,1.5,1.2c3.2-0.1,4.9,4.8,8.1,4.1c2.5-1.6-5.6-7.5-6.9-9c-3.3-6-8.6-10.1-13.5-14.7
		c-5.4-6.5-11.8-14.2-21-10.9c-6.1-2.5-13.7-7.3-11.2-14.8c0.5-2.4,0.1-13.9,1.3-8.9c0.9-0.2,0.3-1,0.9-1.6
		c4.7,5.2,10.8,25.7,13.2,7c2.4,1.8,5.7,2.3,8.9,2.1c6.3,1.8,11.3,6.8,17.1,10c1.1,0.3,2.1,1.2,2.3,2.5c0.3,2.2,2.6,0.7,3.8,2.1
		c1.1,1.8,3.5,2.8,4.4,4.6c0.1,1,0.7,0.9,1.3,0.5c2.4-1.2-1.6-2.9-1.3-4.5c-2.1-14.9-25.4-20.6-26.2-33.8c0.5-3.3-6.1-9.4-4.1-10.9
		c2.1-6.1-3.6-13.9-2.4-21c4.1,0,5.4,2.8,6.7,5.5c1.6,3.4,3,6.7,9.1,4.9c6.3-2,10.6,4.3,16.1,5.3c43.9-10.2,33.7,76.7,54.5,11.6
		c3.9-0.1,7.8,1.6,10.9,3.9c3.3,0.7,3.3,5.3,6.7,5.8c4.8,9.8,16.8,17,23.8,25.1c2.3-0.4,3.4,2.1,5.5,2.3c1.7-0.2,1.8,2.3,3.4,2.3
		c0.2,3.1,2.7,5.3,2.6,8.4c0.6,1.2,1.9,2.1,1.8,3.7c5.1,10.4,5.9,24.4,13.8,32.8c3-1.8,0-8.4-0.3-11.6c-0.8-12.7-3.7-24.7-4.4-37.4
		c1,0.8,0.7,2.1,1.4,2.8c2.3,0.4,2.2,2.9,3.5,4.1c0.9,1.5,2.8,1.9,3.1,3.5c1.9,2.1,3.3,5.5,6,6.5c0.1,1.3-0.3,2.8,1.5,3.2
		c0.4,1.8,2.7,2.7,2.6,4.8c-0.1,1.4,1.8,1.6,1.9,3.1c0.1,1.1,0.2,2.4,1.5,3c3,9.8,10.1,17.6,16.8,25.5c3.5,3.6,4.2-1.7,6.6-3
		c0.7-0.4,0.2-2.2,1.2-2.5c2.3-0.6,0.4-3.9,2.8-3.8c1.6,0.1,1.7-3.7,3.3-2.4C315.4,192.4,320.1,206.4,329.6,212.6z M187.7,170.5
		c-4.9-5.6-11.1-17-18.9-9.2c-3.9,1.6-10.3,0.5-12.3,5.3c1.4,3.3,6.8,2.5,8.5,6c2.4,2.1,5.3-2.2,8.1-2.3
		C178.1,167.1,182.8,171.8,187.7,170.5z M143.5,142.1c-4.6-0.2,0.1,5.5,1.7,6.2c3.7-0.7,6.6,4,9.7,3.1
		C154.9,146.9,147.4,143,143.5,142.1z"/>
	<path class="st31" d="M103.5,78.2c-0.1,5.6,1.5,11.2,2.5,16.6c1.3,1.6,1.3,2.7-0.1,4.4c-1,1.2-1.1,1.3,0.2,2.1
		c1.7,1.8,1.6,4.7,3.5,6.6c0.5,0.6,0.7,1.3,0.4,2.2c-0.4,1.1-0.8,2.4,0.5,3.4c0.6,1,0.4,3.3,1.8,3.7c6.1,4.3,11.1,10,17,14.6
		c2.5,0.9,2.2,3.9,4.1,5.2c-0.2,2.7,3,4,2.8,6.8c-0.1,1.3,1.3,1.9,1.8,2.9c1.1,1.3-1.8,2.8-1.8,1.1c-0.9-1.8-3.3-2.8-4.4-4.6
		c-1.1-1.4-3.5,0.1-3.8-2.1c-0.8-2.9-7.8-4.8-9.7-7.8c-5-2.4-9.2-5.4-14.9-5.1c-1.6,0.5-3.8-3.2-4.1-0.9c-0.6,10.7-3.7,7.5-8.3,1.1
		c-0.5-3.8-1.5-6.3-4.5-8.9c-0.9,2.6-1,1.6-1.3-0.3c0,5.3-2.6,13.2,0,18.6c13.9,13,10.5,3.1,20.5,7.4c7.3,5.9,13.8,13.2,20.1,19.6
		c3.4,3.2,5.5,7.9,9.5,10.7c5.5,5.5-0.7,4.9-3.8,1.1c-1.3-1.9-4.8,0-4.3-2.4c-9.8-4-18.8-15.8-30.9-12.5c-1.5,1.1,0.3,5.1-3.6,3.1
		c-1.9-1.1-3.8-1.9-6.1-1c-1.2,0.6-3.6-1.9-3.8,0.4c-1,2.8,0.1,11.4-3,11.6c2.7-17.8,2.3-36,2.9-54.1c-1.1-12,5.4-3.9,8.3,1.4
		c2,1.9,1.3,4.5,2.5,6.6c4.6,7.1,2.6-3.8,3.6-6.8c-0.3-2,1.6-2.9,1.5-4.7c-0.7-6.4,2.3-12.2,1.9-18.5c-0.2-3.1,0.2-5,3.4-2.6
		c1.6-3-1.1-5.7-1.5-8.5c-0.6-3.3,1.5-7.7-1.6-10c-0.3-0.2-0.3-0.7-0.2-1.1C101.6,77.7,102.7,77.5,103.5,78.2z"/>
	<path class="st10" d="M101.1,74.4c-0.7-4.2,1.7-3.9,1.6-7.7C103.1,68.9,103.9,74.1,101.1,74.4z"/>
	<path class="st10" d="M103,65.3c-0.2-1.3,0.1-2.3,1.4-2.9C104.8,63.8,103.8,64.5,103,65.3z"/>
	<path class="st10" d="M100.7,76.4c-0.1-0.4-0.1-0.8,0.3-1.1C101.1,75.7,101.1,76.1,100.7,76.4z"/>
	<path class="st23" d="M69.9,101.7c3.8,3.1,4.4-2.5,5.7,1c-1.3,0.1-1.4,1-1.5,2C73.3,103.4,68.4,103.3,69.9,101.7z"/>
	<path class="st19" d="M74.2,104.7c0.1-1,0.2-1.9,1.5-2l0.1,0.1c-0.4,0.9-0.4,1.9,0,2.8C75.1,105.5,74.1,105.4,74.2,104.7z"/>
	<path class="st23" d="M52.2,100.8c0-0.4,0.1-0.8,0.5-1C52.6,100.2,52.6,100.6,52.2,100.8z"/>
	<path class="st23" d="M51.7,101.3c0.2-0.2,0.3-0.3,0.5-0.5C52,101,51.8,101.1,51.7,101.3z"/>
	<path class="st32" d="M624.2,146.5c-0.3,3.6-2.3,6.4-2.4,10.2c0.3,3.3-2.2,5.7-2.2,9c-0.2,1.1-0.7,1.6-1.7,2
		c-1.2,2.7-1.9,1.4-2.1-0.8c-0.5-0.8,0.2-2.2-1.5-2.3c-0.6-1.3-0.3-3.6-0.7-5.1c-1.8-3.4-4.6,2.7-4,4.5c0.4,2.9-1.9,4.6-2.1,7.4
		c-2.7-0.3-0.8-6-4-7.9c1-6.5,8.4-10.7,10.8-16.8c0-0.1,0.4-0.3,0.6-0.3c1.9,0.8,0.8-1.5,1.6-2.1c3.2-2.9,5.4-6.7,8.2-10
		c1.6-1.4,3.9-4.3,3-6.3c5.4-2.2,9.1-11.3,13.6-15.7c4.4-4.2,7-11.6,12.7-13.4c10.3-4.1,21.5-7.6,32.1-11.6
		c11.2-7.5,20-18.8,30.9-26.4c0.3,2.9-0.9,6,1.1,8.5c0.2,0.3,0.5,1.4-0.3,1.2c-0.3-0.1-0.7-0.5-0.9,0.2c-0.2,1.4,1.9,2,3,2.1
		c2.5-1.7,4.9-4.5,7.6-6.5c0.7-0.6,1-1.2,0.9-2.1c0.9-1.3,2.6-1.7,3.2-3.3c7.6-4,12.4-18,22.8-14.5c-1.2,1.9-0.2,4.5-1.6,6.2
		c-1.9,1.2-1.1,2.9-0.9,4.7c-1,1.3-2.7,1.4-2.3,3.4c0.1,1.6,0.3,3.4-1.4,4.5c-0.7,1.3-0.5,3.2-1.6,4.4c-1.4,1.8-1.2,4-1.5,6.1
		c-1.3,1.3-1.6,3-2,4.7c-0.5,1.8-1.5,2-2.6,0.6c-0.9-1.2-2.8-1-3.3-2.8c-0.1-0.5-1.8-0.2-2.3,0.5c-0.3,0.4-0.2,0.9-0.7,1.2
		c-5.2-0.1-9.7,4.7-13.5,8c-0.4,0.3-0.5,1,0,1.2c3.5,3.3,7.9,0.5,12,1.8c-0.4,1.5-5.2-0.2-7.5,1.7c-2.9,0.8-4.3-2.8-8.6-0.9
		c-6.3,0.6-12.1,1.4-16.8,6c-2,0.8-3.8,2.2-5.6,3.3c-1,0.1-2.3-0.3-2.4,1.4c-6.9,4.2-14.7,7.8-19.1,14.9c-0.9,2.1-3.4,3-3.6,5.5
		c-1.6,1.1-3.8,1.9-5.9,2.3c-11.2,2.9-16.8,3.9-20.9,15.4c-3.6,3.5-11.9,4.2-11.9,10.9c-0.3,0.1-0.4,0.3-0.4,0.5
		C627.1,151,628.6,139.9,624.2,146.5z"/>
	<path class="st19" d="M586.2,119c0.6-1,0.4-4.5,2.3-2.6c4.3,4.2,11.1,4.2,14.8,8.9c0.8,2.3,2.6,3.9,4,5.7c-0.1,2.1,3.6,2.1,4.3,0.4
		c2.9-2.5,6-8.5,10.1-8l0,0c0.1,0.2,0.3,0.3,0.5,0.5c0.1,1.1,1.3,0.8,1.5,1.8c-0.1,0.9,0.8,1,1.2,1.6c1.6,1.5,1,2.1,0.2,3.7l0,0
		c-1.9-0.3-1.3,2-2.4,2.9c-1.3,0-1.5,0.9-1.5,1.9c-2.2,0.2-1.2-2.3-1.8-3.5c-0.3-0.6,0.6-0.8,1.1-0.9c1-0.3,0.2-2.7,0.7-3.7
		c0.1-1-1.2-1.4-1.4-0.3c-0.1,0.4-0.1,1.1-0.7,0.9c-1.8-0.9-0.9,3.2-2.3,1.2c-0.3-0.6-0.7-0.3-0.8,0.2c-0.5,1.3,1.6,3.3-0.8,3.2
		c-2.8-0.7-8.5,3.1-10.3,0.3c-4.7-7.5-2.9-8-11.2-10.2C590.7,117.7,587.9,122.3,586.2,119z M622.3,128.8c-1.3,0.4,0.8,1.3,0.5,0.3
		C622.7,128.9,622.4,128.8,622.3,128.8z"/>
	<path class="st10" d="M625.6,130.1c1.5-2.1-1.7-2.7-1.9-4.4c1.2-0.2,4.4,2.7,4.2,3.8c-2.3,4.5-5.8,8-9,11.9c-0.7,1.1-1.1,2.5-2.6,3
		c-0.4,0.1-0.4,0.7-0.4,1.1c0.2,1.7-1.1,0.6-1.8,1.3c-2.5,5.9-9.4,10.1-10.8,16.3c-0.7-0.5-1.5-0.5-2.2-0.5c0.1-1.1,0.8-1.9,1-2.9
		l0,0c0.2-0.2,0.3-0.3,0.5-0.5l0,0c0.2-0.2,0.3-0.3,0.5-0.5l0,0c3-4.2,7-7.7,9.2-12.5c1.4,0.2,1.5-0.9,1.4-1.9l0,0
		c1.1,0.2,2.1-0.8,1.9-1.9c3.6-3.3,6.2-8.1,9.6-11.6C625.5,130.8,625.6,130.5,625.6,130.1z"/>
	<path class="st10" d="M728.2,64.4c-0.5,3.2-4.9,5-7,7.2c-0.3,2.4-4.6,1.2-4.4-0.7c0.1-1.1,1.5,0.7,1.3-0.7c-1.9-2.9-1.3-6-1.4-9.2
		c0.9,0.2,1.3-0.4,1.8-1c1,8.1-3.3,17.1,6.4,6.5c1.1-0.7,1.4-1.6,1.5-2.7C727.1,64,727.6,64.2,728.2,64.4z M717.5,62.3
		c-0.3,1.3-0.3,2.1-0.1,3.5C717.8,64.5,717.8,63.7,717.5,62.3z"/>
	<path class="st10" d="M623.2,124.8c-0.6,0-1-0.3-1-0.9C622.8,123.8,623.2,124.1,623.2,124.8z"/>
	<path class="st10" d="M622.2,123.9c-0.2-0.2-0.3-0.3-0.5-0.5C622,123.4,622.1,123.6,622.2,123.9z"/>
	<path class="st10" d="M718.8,58.7c0,0.1-0.1,0.3-0.1,0.4C718.3,58.8,718.4,58.7,718.8,58.7z"/>
	<path class="st27" d="M17.1,132.5c3.6-1.3,6.6-5.4,9.7-8c2.1-1.3,5.1,1.8,7.2,2.6c1.6,1,3.6,1.2,4.7,3.1c0.3,0.6,1.2,0.3,1.8,0.5
		c0.9,0.1,0.6,1.6-0.3,1.3c-3.6-0.2-6.7-2.9-10.7-1.7c-1.3,1.6-3.4,2.1-5,3.3c-1.8,1.4-5,0.1-6.9,1.9c-1,0.9-2.1,0.5-2.9-0.6
		C17,134.7,17,134.7,17.1,132.5L17.1,132.5z"/>
	<path class="st10" d="M47.9,101.3c0.2-0.6,0.7-1,1.3-1.1C49.3,101.3,48.6,101.3,47.9,101.3z"/>
	<path class="st20" d="M243.1,147.8c-0.7-0.7-0.4-1.9-1.1-2.6c1.5-2.5,3.9-3.8,5.7-6.2c1.1-0.8,2-3.2,3.8-2
		c-0.6,13.1,3.3,26.9,4.7,40.1c1.1,1,1.3,8.4-0.6,5.7c-3.4-8.7-5.8-18.1-9.8-26.7c-1.8-1.8-0.6-9.1,1.6-4.4c-0.4,1.9,1.7,3.2,3.2,2
		c0.5-1-0.6-2-1.1-2.7c-1.1-2.5,0.9-5.3-1.4-7.9c-6,3.4,0.3,4.5-4.4,6.2l0,0C243.6,148.7,243.7,148.2,243.1,147.8z"/>
	<path class="st25" d="M243.6,149.3c4.7-1.7-1.6-2.8,4.4-6.2c2.3,2.6,0.3,5.4,1.4,7.9c1.4,1.1,1.9,3.7-0.6,3c-2.4,0-0.3-4-2.9-3.8
		c-1.3,0.1-0.7,1.5-0.9,2.4C244.6,151.5,243.5,150.6,243.6,149.3z"/>
	<path class="st23" d="M243.1,147.8c0.6,0.3,0.5,0.9,0.5,1.4C243,148.9,243.2,148.3,243.1,147.8z"/>
	<path class="st18" d="M508.5,197.3c0.3,1.4-0.9,1.8-1.7,2.4C506.3,198.2,507.7,198,508.5,197.3z"/>
	<path class="st18" d="M506.7,200.6c0,0.2,0.2,0.3,0,0.4C506.6,200.9,506.6,200.7,506.7,200.6z"/>
	<path class="st27" d="M75.7,105.6c-1.4-3.5,3.6-4.7,5.8-6.5c4.1-2.2,7.2,2.9,10.5,4.2c0.7,2,0.4,2.4-1.6,2.1
		C85.5,105.2,80.5,105.3,75.7,105.6L75.7,105.6z"/>
	<path class="st33" d="M532,181.4c0-0.6,0-1.3,0-1.9c1.8-0.3,1.4-2.5,1.5-3.9c1.6-0.8,2.1-2.5,1.9-4.3c0.8-2.1,2.6-3.8,2.4-6.3l0,0
		c22.3-4.2,15.4,3.3,28.8-18.7l0,0c1.7-0.5,2.2-1.8,2.4-3.4l0,0c0.5-0.2,0.8-0.5,1-1c0.6-0.4,0.9-1.2,1-1.9c1.2,0,0.9-1.3,1.4-1.9
		c0.5-1.2,2.4-2,1.9-3.8l0,0c2.5-1.2,2-4.4,4.3-5.8c0.5,1.7-1.5,2.3-1.6,3.7c-0.1,2.3-2.3,3.6-2.5,5.8c-5.2,7.6-7.6,17.4-14.4,24
		c-8.3,5.3-22.9,0.4-24.7,13.3C533.8,177.1,534.3,180.9,532,181.4z"/>
	<path class="st7" d="M566.6,146.4c-13.3,21.9-6.5,14.6-28.8,18.7c1.3-1.6,3-1.8,4.9-1.9C559.5,164.5,556.5,154.7,566.6,146.4z"/>
	<path class="st7" d="M537.8,165.1c0.2,2.4-1.6,4.2-2.4,6.3C535.2,168.9,536.3,166.9,537.8,165.1z"/>
	<path class="st7" d="M574.3,134.4c0.4,1.8-1.3,2.5-1.9,3.8C572.3,136.6,572.2,134.9,574.3,134.4z"/>
	<path class="st7" d="M535.4,171.7c0.1,1.7-0.4,3-1.9,3.9c0-0.8,0-1.6,0-2.4C534.5,173.2,534.6,172,535.4,171.7z"/>
	<path class="st7" d="M569,143c-0.2,1.6-0.7,2.9-2.4,3.4C566.5,144.6,567.9,143.9,569,143z"/>
	<path class="st7" d="M572.3,138.2c-0.5,0.6-0.2,1.9-1.5,1.9C570.8,139.1,571.1,138.3,572.3,138.2z"/>
	<path class="st7" d="M570.9,140.1c-0.1,0.8-0.3,1.5-1,1.9C569.9,141.2,570,140.5,570.9,140.1z"/>
	<path class="st7" d="M569.9,142c-0.2,0.5-0.5,0.8-1,1C569,142.4,569.3,142.1,569.9,142z"/>
	<path class="st20" d="M301.9,183.9c3,0.1-6.6,10.8-7.5,12.7c-2,2.6-3.7-4.5-6-5.2C286.2,188.9,300.3,186.6,301.9,183.9z"/>
	<path class="st18" d="M541.1,192.5c1.4,4.1-0.2,2.4-1.8,5c-1.2,3.3-2.4-3.8-1.4-4.6c0.7,0.3,0.2,1.3,0.9,1.8
		C539.5,193.8,539.5,192.2,541.1,192.5z"/>
	<path class="st18" d="M534.3,189.9c-2.9,1.4-5.3,11.7-5.6,2.5c2.8,0.1,3.6-3.9,6.7-3.3C535.2,189.6,534.7,189.6,534.3,189.9z"/>
	<path class="st19" d="M534.3,189.9c0.9-0.4,1.8-1.1,1.7-2.2c2.2,1.5,1.9,4.4,1.4,6.6C535,193.7,536.2,190.7,534.3,189.9z"/>
	<path class="st8" d="M528.7,192.4c0,1.8,0.2,3.3-0.2,5c-2.3-1.5-0.2-5.3-3.4-5.6C525.7,188.7,527.3,191.8,528.7,192.4z"/>
	<path class="st34" d="M612.2,146.4c-2.1,4.7-6.2,8.3-9.2,12.5c0.6-4.6-3-0.2-3.9,1.5c-0.1,0.5-0.6,0.8-1.1,0.8
		c-1.7,0.4-4.3,4-4.6,0.2c0-0.9-0.1-1.6-1.2-1.7c-0.6-0.1-0.6-0.6-0.8-1.1c-1-3.2-4.5-1.7-5.3,0.8c0.8-2.9,0.9-6.1-3-3.6
		c-1.5,1.1-8,2.3-5.8-1c2-3,2.6-7.2,4.1-10.5c1.2-1.5,1.1-1.6-0.7-2.2c-4.6-0.6,0.8-3.3,1.5-4.9c0.3-2.4,5.7-5.2,3-7
		c-2.1-1.4-2.3-2.1-1.2-4.5c1.4-2,0-5.7,2.2-6.7c1.6,3.3,4.5-1.3,7.5,4.1c8.3,2.2,6.5,2.7,11.2,10.2c1.7,2.7,7.4-1,10.3-0.3
		c2.4,0.2,0.3-1.9,0.8-3.2c0.1-0.5,0.5-0.7,0.8-0.2c1.4,2,0.5-2.1,2.3-1.2c0.7,0.2,0.6-0.5,0.7-0.9c2.1-2.5,0.9,2.4,1.3,3.3
		c0.1,0.2-0.2,0.6-0.6,0.6c-0.5,0.1-1.4,0.3-1.1,0.9c0.6,1.2-0.4,3.7,1.8,3.5c-2.5,1.7-3.1,5.3-5.7,6.7c0-0.7,0-1.6-0.8-1.7
		c-1,0.1-0.3,1.8-1.5,2.1C611.4,144,611.3,144.4,612.2,146.4z"/>
	<path class="st13" d="M173.1,118.1c4.4-3,8.8-8.3,12.1-12.8c2-0.3,2-2.9,3.6-3.4c1.1,0.4,0.7,2.4,0,3.1c-4,7.6-6.3,16.8-10.8,23.9
		c-1.2-1.4-2.9-4.7-3.2-6.9C175.2,120.4,172.8,119.8,173.1,118.1z"/>
	<path class="st17" d="M528.7,192.4c-1.1-0.2-1.4-1.3-2-2c-0.2-0.5-1.6-0.3-0.9-0.9c4.1,1.5,3.7-3.9,5.7-6.2
		c0.2,3.1,4.6,0.5,4.4,4.4c-0.1,0.5,0.1,1.1-0.5,1.4C532.3,188.5,531.6,192.5,528.7,192.4z"/>
	<path class="st19" d="M756.1,46.1c1.6,0.4,2.1,0.9,1.7,2.1c-0.6,1.2,0.3,3.1-0.8,4C754.8,51.8,755.5,47.7,756.1,46.1z"/>
	<path class="st10" d="M536,187.7c0.2-3.8-4.2-1.3-4.4-4.4c0.6-0.4,0.4-1.3,0.5-1.9l0,0c2.3-0.5,1.8-4.3,3.4-5.9
		c1.8-12.9,16.3-8,24.7-13.3c6.8-6.6,9.2-16.4,14.4-24c0.2-2.2,2.4-3.5,2.5-5.8c0-0.5,0.2-1.1,0.8-1.4c0.9-0.5,0.8-1.4,0.8-2.3
		c0.6-0.3,0.5-1.2,0.5-1.8c0.7-0.1,1.4-0.1,1.5-1.1c0.9-3.2,1.1-2.4,4.2-3.4c0.6,3.1-3.6,6,0.5,7.9c1.3,0.8,1.2,0.8,0.3,2.1
		c-2.1,2.6-3.3,5.5-6,7.7c-1.4,1.7-0.6,1.7,1.2,2.1c2.5,0.5,1.2,1.2,0.3,2.7c-1,3.3-2,7-3.7,9.9c-0.4,0.4-0.8,0.9-0.4,1.5
		c3.1,3.1,12.3-5.9,9.2,2.8c-2.5,1.6-0.9,10.6-3.3,14.3c-0.6,0-1.3-0.1-1.9-0.1c0.5-3.6-4.8-7.3-8.2-6.3c-1.4,0.8-0.9,3.2-2.5,3.8
		c-2.3,1.6-5.9-1.4-6.5,2.2c-3.2,8.4-0.2-9.9-3.7-4.9c-1-1.7-0.8-2.7-3-2.5c-1.1,0.2-2.6-0.4-3.4,0.5c0.8,3.7,0.9,8.3,0.1,12.2
		c-2.5-0.1-1.3,8.5-4.6,3.8c-0.8-0.7-1-1.4-0.2-2.2c0.6-0.5,0.8-2.6-0.4-2c-0.1,0.1-0.4,0.3-0.4,0.2c-1.6-1.8-2.9-0.8-4.1,0.4
		c-0.9,0.9-0.8-0.7-1.3-0.6c-1.4,2.7-1.4,2.8,0.9,3.6v0.2c-2.4,1-1.3,4.8-1.9,6.9c-2.4-1.6-1.4,3-3.8,2.4
		C537.2,189.9,537.3,188.4,536,187.7z"/>
	<path class="st17" d="M580.5,125.7c0,1-0.8,0.9-1.5,1.1C579,125.8,579.7,125.7,580.5,125.7z"/>
	<path class="st17" d="M580.9,123.8c-0.1,0.7,0.2,1.4-0.5,1.9C580.5,125.1,580.3,124.3,580.9,123.8z"/>
	<path class="st17" d="M579,127.1c0,0.5,0.1,1.1-0.5,1.5C578.6,128.1,578.5,127.5,579,127.1z"/>
	<path class="st18" d="M475.4,136.3c0.1,0.1,0.1,0.1,0.2,0.2C475.5,136.5,475.4,136.4,475.4,136.3L475.4,136.3z"/>
	<path class="st17" d="M532,181.4c-0.1,0.7,0.2,1.4-0.5,1.9C531.6,182.7,531.3,181.9,532,181.4z"/>
	<path class="st35" d="M510.1,199.3c-0.1-0.3,0-0.5,0.2-0.6C510.3,198.9,510.2,199.1,510.1,199.3z"/>
	<path class="st7" d="M533.5,175.6c-0.1,1.4,0.4,3.5-1.5,3.9C532,178,532.8,176.9,533.5,175.6z"/>
	<path class="st19" d="M17.1,132.4c-0.2,2.2-0.2,2.2-2.4,2.4C15.4,133.9,16.1,133,17.1,132.4z"/>
	<path class="st10" d="M197,187.2c1.4-1.9,3.5-3.5,4.6-5.5c0.2-1.2,0.3-2.4,1.7-2.8c0.4-3.1,2.8-4.7,4.6-6.9c0.5-0.9,2-1.1,2.5-2.3
		c0.1-0.4,0.9,0,1.2,0.3c3.7,2.9,6.9,6.6,11.8,7.3c5.9,0.6,9.7,6.3,13.6,10.2c6.1,6,13.4,10.8,20.2,16.1c9.5,1.4,15.5-5.7,22.5,5.4
		c3.5,4.3,9,2.3,12.3,5c2.5,0.9,4.3-1.1,6.7-1.1c2.6-0.2,5.3,0.2,7.6-1.3c1.1-0.4,2.4-0.6,3.4-0.7c0.9,1.5,3.2,1.6,3.4,3.7
		c-0.2,1.6,1.6,0.8,2.1,1.7c4,4.6,9.2,21.4,16,19.1c2.7-1.3,5.8-2.9,8.8-2.9c0.9,0.7,1.7,0.3,2.3-0.4c7.1-5,12.7,9,18.2,9.4l0,0
		c0,0.7,0.3,0.9,0.9,1c0.5,2.1,1.9,5.2,4.3,5.3c-0.2,0.9,0.4,1.3,1.1,1.8c-0.9,1.2,0.9,1.1,1,2c-3.2,0.2-7.5,1.3-10.2-0.2
		c-2.8-3.3-7.7-1.1-11.4-1.7c2.3-3.9-9.3-0.1-10.9-3.2c-2.7-2.6-6.9,0.6-9.7-2.4c-2.8-0.9-6,0.1-8.9-0.6c-2.9-2.4-7.1-1.8-11-2.1
		c0.4-0.6,1.4-0.1,1.7-1c-2.6-1.8-6.1,0-8.7-1.1c-2-3-9-1.1-9.2-5.8c0.4-3.9-3-7.2-2.2-11.3c0.1-0.9-0.1-1.6-0.9-2.3
		c-1.9-1.1-3.6-5.1-6-2.6c-1.9,1.8,0,4-1.1,6.1c-2.1-0.7-4.2-2.4-4-4.7c-0.1-0.7,0.4-1.6-0.5-1.9c-2.2-1.2-4.3-0.5-3.7,2.3
		c-0.2,0.5-0.7,1.2,0.3,1.4c0,0.6-0.1,1.2-0.1,1.8c-2,0.4-1.9-0.7-2.7-2c-2.4-0.7-0.9-3.3-1.9-4.9c-0.1-0.3-0.3-0.7-0.7-0.4
		c-1.6,0.9-1.1-1.9-1.2-2.7c0.1-1.9-1.9-2.3-2.5-3.7c-3.5-0.5-3.2,3.3-3.6,5.6c-2,2.3-0.1,5.9-2.1,8.1c-0.9,1.1-1.4,2.2-1.4,3.6
		c0.1,1.3-1.8,1.7-2.4,0.6c-0.5-0.8-0.8-2-2-1.5c-1.3-1.8,0.9-5.9-1.9-6.3c-0.7-3.2-1.1-10.5-5.5-9.9c-1.8,0.3-0.9,2.9-1.2,4.2
		c-2.4,0.7-1.4-3.4-3.8-2c-0.5-1.9,1.1-5.7-2-5.8c-0.1-1.6,0.3-3.4-1.9-3.8c-0.2-1.4,0.2-4.3-1.5-4.8c-1.1-0.1-1.7,0.5-1.6,1.7
		c0,0.5,0.5,1.2-0.2,1.5c-2.1,1.4-0.5,4.7-1.2,6.9c-0.8-0.6-0.1-1.8-0.8-2.7c-0.6,1.3-0.6,2.6-1.4,3.5c-0.4-2.1,0.5-4.5-1.3-6.3
		c-0.4-1.9,0.2-4.1-1.5-5.7c-3.8,2.9-0.6-7.3-8.9-2c-0.1,2.3-1-0.2-1.4,0.2c-0.9-2.4-2-9-5.5-4.8c-0.8,2.3-4.1,2.4-3.7,5.1
		c-0.7,2.5,0.5,6.8-1.3,8.3c-0.9,0.1-1.1-0.5-1-1.2c0.5-2.8-2.8-1.2-2-4.3c0-2.3,0-2.3-1.9-3c-0.7-0.9-0.4-7.7-2-4.7
		C197.4,188.4,197.7,187.5,197,187.2z"/>
	<path class="st8" d="M197,187.2c1.7,1.2-0.1,4.5,2.4,4.8c1,2-0.1,4.3,2.4,4.4c-0.2,3.3-0.1,6.8,0.2,10.2c-0.7,0.1-1-1-1.9-0.6
		c-1.1-2.8,0.2-5.4-0.5-8.3c0-0.4,0-1-0.2-1.1c-2.6-1.3-1.1-4.1-2.8-5.9c-0.6,0.5-0.4,1.2-0.4,1.7c0.1,2.3-2.8,1.9-2.2,4.8
		c0.3,3.2-1.9,5.6-2,8.6c0.2,2.4-2.3,7.6-5.1,6.6c-0.9-0.4-3.7,0.2-3-1.4c0.2-0.4-0.3-0.4-0.6-0.4c-5.1,0-12,0.5-12.4-6.3
		c-0.1-1.9-0.1-1.9-1.9-1.9c-0.7-0.5-3.2-1-1.7-2.1c3.3-1.1,0.6-4.1,1.8-6.1c0.6,1.3,1,0.4,1.6-0.3c-0.3,3.5,1.9,5.9,2.1,9.1
		c0.2,1,0.2,2,0.9,2.9c-0.3,2.1-0.3,2.1,1.7,2.3c1.8,0.6,8.4-1.4,6.4,2c6,0.3,7.7,0.5,7.9-6.1C193.7,200.9,191.4,187.6,197,187.2z"
		/>
	<path class="st17" d="M317,243.4c2.9,0.7,6.1-0.3,8.9,0.6c2,1.9,4.3,1.4,6.6,1.3c2.6-0.4,3.9,2.8,6.5,2.3c1.8,0.4,9.6-1.1,7.4,1.9
		c3.7,0.6,8.6-1.6,11.4,1.7c2.7,1.5,7,0.4,10.2,0.2c0-0.8-1.9-0.8-1-2c2-0.2,2.1,2.1,3.5,2.8c0.3,0.2-0.2,0.9-0.6,1.1
		c-1.1,0.6-0.2,1.2,0,1.7c-11.7-2.2-23.8-4.4-35.8-6.2c-3.3-3.1-8.1-0.3-11.5-3C320.9,244.7,316.9,246.6,317,243.4z"/>
	<path class="st8" d="M117.2,181.8c4.1-0.4,1.6,7.5,4,8.6c0.9,0.9-0.1,2.8,1.1,3.7c1.6-0.6,0.5-3.1,2-4c0.4-0.4,0.7-0.8,0.2-1.4
		c-0.6-0.6,0.3-0.9,0.5-1.4c0.5-1.5,0-3.4,1.7-4.4c0.2-2.9,1.9-5.1,4.9-3.2c2.6,2.7,2.3,7.1,2.4,10.8c0.4,1.6,2.3-0.5,1.9,3.3
		c0.1,2,3,2.4,1.8,5.1c-1.1,2.1,0.7,4.3-0.1,6c-2.2,0.2-1.6-1.8-2.8-2.9c-1.7-1.3-1.7-2.5,0-3.8c2.6-2.6-1.5-3.9-1.3-6.2
		c-0.1-0.7,0-1.6-0.8-1.8c-2.7-1.6,0.5-6.9-2.2-8.6c-5.7-0.4-1.1,6.5-4.4,8.3c-3.7,11.1-7.5,5.8-6.8-3
		C120.5,184.8,116.9,183.9,117.2,181.8z"/>
	<path class="st17" d="M280.2,220.8c-1.3-1.9,0.7-4.9,2.8-4.3c1.7,0.3,2.2,2.6,3.9,3.3c0.8,0.7,1,1.4,0.9,2.3
		c-0.8,4.1,2.6,7.4,2.2,11.3c0.2,4.7,7.2,2.7,9.2,5.8c2.6,1.1,6.1-0.7,8.7,1.1c-1.2,1.7-11.4,1.7-11.9-0.5c0-0.4-0.7-0.3-1.1-0.4
		c-6.5,0.9-5.8-4.6-7.8-8.8c-0.8-2.1-0.9-4.4-2.9-5.8c-0.1-0.8,0.2-1.8-0.7-2.3c0.8-1.2-1.3-1.7-0.9-0.2c-0.1,0-0.3,0-0.4,0
		C281.4,221.4,281.6,219.8,280.2,220.8z"/>
	<path class="st8" d="M166.8,183.5c0.1,1.3,0.2,3.5,1.9,3.4c-0.3,1.7,1,3.6,0,5.1c-3.8-0.8-1.3-4.6-2.8-6.8
		c-2.4,0.6-0.5,4.2-2.7,5.7c-1.3,1.7,0,5-1.7,6.7c-1.3,2-0.1,4.3-2,6.3c-1.4-5-3.6-9.5-3.6-14.7c-4.7,1.2-3.4,12.2-6.1,15.4
		c-1.3-5.1,2.3-8.6,2.2-13.5c-0.6-4.3,5.7-6.9,4.7-1c-0.3,0.9,1.7,0.7,1.3,1.3c-0.1,0.5,0.3,1.1-0.5,1.4c-0.8,0.3,0.5,1.7,0.9,1.2
		c2.7-1.1,3.1-3.9,3.3-6.6c0.3-0.8,0.5,0.6,0.7,0.1C162.9,184.8,163.8,183.2,166.8,183.5z"/>
	<path class="st17" d="M251.3,224.7c0.5-0.1,1.1-0.2,1.4,0.5c2.7,4.9,2.6-1.5,4.2-3.1c2.1-2.1,0.1-5.8,2.1-8.1
		c0.5-0.6,0.3-1.1,0.2-1.8c-0.5-2.1,1.4-4.2,3.4-3.8c0.6,1.4,2.6,1.8,2.5,3.7c-0.1,4.9,1,1.7,1.9,3.1c1,1.6-0.5,4.2,1.9,4.9
		c0.8,1.1,0.6,2.1,2.3,2.1c-0.3,0.6-1.4,0.4-1.3,1.4c0.2,2.2-1.3,8.6-2.3,3.2c0.6-2.1-2.8-2.4-0.8-4.3c1.1-1.4-1.8-1.5-1.2-3.7
		c-0.2-2.4-2.8-3.7-2.4-6.4c0.4-2.6-2.5-2.4-2,0.1c-0.3,2.6-2.5,4.7-2.3,7.6c-1.2,2.6-0.9,6.6-2.9,8.3
		C252.9,230,250.6,228.2,251.3,224.7z"/>
	<path class="st15" d="M226.4,214.2c-1.1,0.4-1.9,0-1.8-1.1c-0.5-5.7-2.7-12.2-5.2-16.9c-3.1,1.3,0.8,7.7-3.5,8
		c-1.8,0.6-1.8-2-1.9-3.3c-0.5-3.3-3.3-7.1-1.8-10.5c3.1,2.2,1.2,6.6,3,9.5c0.7-0.5,0.6-1.3,1.1-1.9c0.7,0.3,1.1-0.6,1.4-1.1
		c1.1-3.1,1.3-2.4,4-1.8c0.8,3.8,1.7,7.5,3.3,11.3C225.8,209.1,227.6,211.2,226.4,214.2z"/>
	<path class="st10" d="M104.2,190.5c2.1-7.5,0.1-3.2,5.3-8.2c3.3-2.1,1.3,5.4,1.8,7.1c0.4,2.1-2.1,3.6-1.3,5.5
		c0.5,2.9-3.4,2.1-3.2-0.4c0-0.8-0.4-1.6-0.7-2.5c-1,0.6-0.2,1.9-1.2,2.3C104.7,193.1,104.4,191.8,104.2,190.5z"/>
	<path class="st8" d="M251.3,224.7c-0.8,4.2,2.8,5.4,5.9,3.1c1.2,2.1-1.8,3.7-3.6,2.6c-4-1.5-3.3-5.4-5.8-8.2c-1.3-2,0-6-1.5-8.8
		c-0.4-1.8-3,1-3.6,1.7c-0.5-2.7-0.5-9.4,3.7-5.8C249.9,214.1,248.3,220.2,251.3,224.7z"/>
	<path class="st17" d="M201.9,206.7c-0.1-2.8-0.6-5.9-0.2-8.5c0.7,1,2.5,0.5,2,2.6c-0.1,0.7,0.1,1.3,1,1.2c1.9-1.5,0.6-5.8,1.3-8.3
		c-0.5-2.7,2.9-2.8,3.7-5.1c1.5-2.9,5.1-0.3,4.5,2.4c-0.6-0.5-1.6-3.5-2.3-2.2c-1.6,0.1-2,1-2.3,2.5c-3.5,1.1-1.2,7.7-2.2,10.6
		c-3,0.7-1.2,4.1-2.7,6.2c-0.9-2.3-1.1,0.4-2.7,0C202,207.7,202,207.2,201.9,206.7z"/>
	<path class="st8" d="M108.9,196.9c0.5-0.6,1.4-0.8,1-2c0.2-3,2-6,1.4-9.5c1-0.5,4.9-7.2,5.7-3.8c-2.2,0.4-5,3.9-4,6.8
		c-0.1,3.7-1.7,8.3-3.5,11.6c-1.9,1.4,4.9,5.9-1.1,6.4c-0.9,0.1-1.7-0.4-1.6-1.3c0.2-2.9-2.4-3.9-3.4-6.1c5.3-4.7,2.1,1.9,4.9,3.2
		C108.1,200.4,108.8,198.7,108.9,196.9z"/>
	<path class="st18" d="M226.4,214.2c1.3-3.7-1.3-6.7-2.1-10.1c-1.3-1.8-1.6-3.8-1.6-5.9c-0.7-2-1.9-4.8,1.2-2.3
		c-1,3.1,2.2,9.5,3.9,12.2c1.2-0.9,1.3-2.8,2-4.5c1,2.3,0.3,4.1,0.8,6.4c-2.7,0.4-3.6,4.4,0,5.5c-1.1,1.1-2.4,0.6-3.6,0.8
		C226.7,215.7,226.9,214.9,226.4,214.2z"/>
	<path class="st36" d="M9.6,213.4c2.8-10.7,6.4,1.9,6.6,5.9c-1-1.2-1.6-2.7-2-4.3c-1,2.1-2.7,1.4-3.6-0.5c0,1.8-2,7.2-4,4.6
		C9.4,219,9.7,215.5,9.6,213.4z"/>
	<path class="st36" d="M16.2,220.3c1.1,0.5,0.5,1.6,0.8,2.3c0.6,2.1,3.1-0.2,3.2-1.6c0.6-4.7,1.2-11.1,6.5-12.7
		c1.5,5.4-5.2,5.4-5.4,10.2C21.8,224.5,15.8,228.1,16.2,220.3z"/>
	<path class="st10" d="M88.7,189.2c-0.6-3.4,4.1-2.1,6-1.4c2.3,1.9-1.9,6.2-1.9,8.7C90.2,194.8,91.5,189.3,88.7,189.2z"/>
	<path class="st8" d="M202.1,208.2c1.6,0.3,1.7-2.3,2.7,0c1.5-2.1-0.3-5.5,2.7-6.2c0.4,2.3-0.1,2-1.3,3.6c1.2,1.3-0.5,2.7,0,3.9
		c2.6,2-0.7,3.3-0.6,4.9c0,0.3-0.4,0.7-0.8,0.7c-1-0.1-0.9-1.4-1-2.2C204,210.8,200.9,210.4,202.1,208.2z"/>
	<path class="st36" d="M33,206.2c-0.4-4.7,0.8-8.2,2.6-12.6c2,3.2,2.7,5.9,2.5,9.4c-1.1-2.3-4.3-1.9-4.7,0.7
		C33.3,204.6,33.7,205.5,33,206.2z"/>
	<path class="st18" d="M149.6,198.4c-0.4,2.4,1.4,6.7-1.1,7.7c-2.3-0.2-12.5,1.6-10.4-2C146.8,204.4,146.2,206.3,149.6,198.4z"/>
	<path class="st8" d="M280.2,220.8c0.8-0.5,1.3-0.6,1.4,0.6c2.1,3.5-2.1,6.3-1.6,9.9c0.5,2.5-2.5,2.8-2.3,0.2c0.3-2.1-2.6-3-1.7-5.1
		c1.3-0.1,1.8,0.7,2.1,1.8C280,232.4,279.7,221.9,280.2,220.8z"/>
	<path class="st8" d="M55.4,210.9c2.8-0.5,1.4-3.6,3.4-5.2c1.4-1,0.1-4.1,2.3-4.2c0.5,0.3,0.6,0.9,0.3,1.2c-1,0.7-0.1,2.1-1.2,2.8
		c-1,0.6-0.1,2.3-1.4,2.7c0.5,0.9-1.4,2,0.3,2.8c0.1,0.1,0.2,0.4,0.2,0.7C61,215.9,54.2,215.5,55.4,210.9z"/>
	<path class="st9" d="M71.6,204.4c0.1,0.9,0.1,1.8,1.3,2c1.7,0.3,1.7,3.6,0,3.8c-1,0.1-1.4,1.2-2.3,1.7c-1.9-2.4,1.4-6.1-2.1-7.6
		c-1-0.8-0.2-2.5-0.4-3.6C69.4,201.8,69.7,204.5,71.6,204.4z"/>
	<path class="st8" d="M304.5,241.5c4.3-0.3,9.3-0.5,12.5,1.9c0,0.6,0.2,1.2,0.5,1.8c-1.2,0-2.8,0.8-3.4-1.2
		C311.3,242.6,305.8,245,304.5,241.5z"/>
	<path class="st8" d="M26.7,212.1c0.2-1.8-0.3-3.7,0.3-5.4c1.3,0.6,1.4,2.2,2,3.2c0.6,0.5,0.9-1.6,1-0.5c1.1,1.7,1.8,6.1-0.2,7.3
		c-0.8,0-1-0.7-1-1.4C28.8,213.8,27.4,213.2,26.7,212.1z"/>
	<path class="st8" d="M227,216.4c1.1-0.2,2.5,0.3,3.6-0.8c-3.6-1.1-2.7-5.2,0-5.5c0,0.8,0.2,1.6,0.1,2.3c-0.2,0.8,1.6,0.2,0.9,1.4
		c-0.7,1.2,1.9,0.7,1.3,2.2C232.1,217.7,226.1,219.9,227,216.4z"/>
	<path class="st17" d="M242.6,212.6c0,1.7,0.8,5.3-1.1,5.9c-3.7,0-2-2.5-2.4-4.9c-0.8-1.4,0.1-5.2,1.5-2.4
		C240.8,212.7,241.7,212.6,242.6,212.6z"/>
	<path class="st35" d="M122.5,197c1.1,1,3.4,0.9,3.1,2.9c-0.1,0.9,0.1,1.9-1.2,2.3c-1,0.9-1.5,3.4-3.4,1.7c-0.4-0.4-0.6-0.8-0.1-1.2
		C122.8,201.2,121,198.7,122.5,197z"/>
	<path class="st17" d="M279.7,223.2c0,1.2,0.1,8.7-1.6,5c-0.3-1.1-0.8-1.9-2.1-1.8c0.2-1.9-0.3-3.8-0.1-5.8
		C277.2,221.3,278,222.9,279.7,223.2z"/>
	<path class="st8" d="M230.6,209.3c-0.7-2.7,0-12.3,4.4-8.2c0,2.7-2.4,0-2.3,5.2C230.5,206,231.7,208.3,230.6,209.3z"/>
	<path class="st8" d="M207.7,200.6c-0.5-2,0.6-4,0.1-6.1c-0.3-2-0.1-2.2,1.9-3.2C209.7,194.1,211.1,199.7,207.7,200.6z"/>
	<path class="st36" d="M47.7,194.2c-0.3-0.9,0.2-1.5,0.7-2.3c2.7,1.3,3.8,9.7-0.4,7.4C50.3,195.7,48,197.4,47.7,194.2z"/>
	<path class="st8" d="M9.6,213.4c0.1,2.1-0.2,5.7-3,5.6c-0.7-0.9-0.4-5.7,0.6-6.2C8,212.4,9,212.2,9.6,213.4z"/>
	<path class="st8" d="M275.9,220.6c-0.6,1.5,0.8,3.2,0,4.5c-2.4-0.7-1.9-8.1-4-4.8C269.5,217.6,277,216.4,275.9,220.6z"/>
	<path class="st8" d="M239,217.3c0.5,1.2,1.7,1,2.6,1.2c1.4,0.1,0.7-1.9,1.2-2.7c0.9,2-0.3,3.9-0.3,5.8c0,0.5-0.5,0.9-1.1,0.7
		C238.7,222.5,238.5,219.4,239,217.3z"/>
	<path class="st36" d="M6.3,216.8c-1.3,2.8-1.8,1.1-4.1,1.4C3.5,214.3,5.7,208.4,6.3,216.8z"/>
	<path class="st17" d="M108.9,196.9c-0.1,1.8-0.8,3.5-0.5,5.3c-2.4-0.3-0.1-6.3-3.2-4.5c-0.3-2.1-0.5-3.9,0.9-5.7
		C107,194,106.4,196.5,108.9,196.9z"/>
	<path class="st18" d="M69.9,203.2c-2.6-2.5-2-5.9-1.9-9.2c1.8,0.7,1.9,0.8,1.6,2.4C69.8,198.6,70.1,200.8,69.9,203.2z"/>
	<path class="st8" d="M60.4,194.4c2.5-0.9,0.2-4.7,3.8-4.3c0.2,1.1-0.5,2.1-0.6,3.2c-3.7-0.9,0.3,6.8-2.5,6.7
		c-0.1-1.2,1.1-4.1-0.7-4.3C61.1,195.3,61.1,194.9,60.4,194.4z"/>
	<path class="st36" d="M30.7,215.4c0.9-2.2-1.3-6.4,2.1-6.8C32.2,210.4,33.7,217.1,30.7,215.4z"/>
	<path class="st6" d="M69.9,203.2c0-1.1,0-2.3,0-3.4c1.2,0.1,2.4,0,3.7,0c-0.6,1.6-2,2.8-2,4.7C70.8,204.4,70,204.2,69.9,203.2z"/>
	<path class="st8" d="M266.3,221.2c2.8,0.5-1.9,3,1,4c0.6,0.3,0.5,1.1,0.4,1.7c-1.5,0.2-5.2-1.4-3.4-3
		C265.7,223.4,265.8,222.2,266.3,221.2z"/>
	<path class="st17" d="M168.7,192c0.8-0.8,0.2-1.6,0.1-2.4c2-2.4,2,3.2,1.7,4.4C168.9,196.4,168.7,193.3,168.7,192z"/>
	<path class="st36" d="M232.6,206.3c0.1-1.3,0-4.1,1.8-3.7C234.7,204.4,234.7,211.2,232.6,206.3z"/>
	<path class="st7" d="M73.6,199.7c-0.4,0-0.8,0-1.2-0.1c-0.4-2.3,0.6-4.5,0.5-6.8c0-1,0.8-0.2,1.3-0.3
		C73.8,194.9,74.6,197.4,73.6,199.7z"/>
	<path class="st8" d="M269.4,228.3c0.5-2.1-0.1-5.5,2.3-6.2c0.8,2.7-0.8,4.2-1.9,6.4C269.7,228.4,269.6,228.4,269.4,228.3z"/>
	<path class="st8" d="M234.6,206.7c-0.1-1.1-0.4-2.2,0-3.2c0.7,0.6,0.3,1.7,1.3,2.2c0.3-0.3,0.6-0.7,0.9-1c-0.2,2,0.6,4.4,0.1,6.1
		C236.7,209,235.4,208,234.6,206.7z"/>
	<path class="st8" d="M238.9,210.7c-0.3,2,1.1,3.9,0.1,5.8c-1.1-1,0.2-2.7-1.5-3.3c-0.9-0.3-0.8-2.2-0.3-2.8
		C237.8,210.7,238.9,209.6,238.9,210.7z"/>
	<path class="st36" d="M282.1,225c0-0.9,0-1.9-0.1-2.8C285.7,221.9,283.8,229.2,282.1,225z"/>
	<path class="st36" d="M166.5,187c-0.1,1.4,0.7,4.2-0.8,4.8C164.4,191.9,165.7,183.9,166.5,187z"/>
	<path class="st7" d="M98.7,186.2c-2.1,2.9-2.2-5.9,0.2-3.7C98.9,183.7,98.8,185,98.7,186.2z"/>
	<path class="st10" d="M85.7,198.4c0.2-3-0.9-7.3,2.6-8.7c-0.7,2.4-2,4.6-2,7.3C86.3,197.5,86.4,198.1,85.7,198.4z"/>
	<path class="st36" d="M63.6,193.3c0.1-1.1,0.8-2.1,0.6-3.2C66.3,188.3,66.4,195.9,63.6,193.3z"/>
	<path class="st36" d="M89.9,191c0,2.5,0,4.4,0,6.6C88.8,196.2,88.8,193.2,89.9,191z"/>
	<path class="st35" d="M199.4,202.6c-0.1,1.1,0.3,2.2,0.5,3.3C197.6,206.7,196.7,202,199.4,202.6z"/>
	<path class="st36" d="M201.8,209.3c0,0.3,0,0.5,0,0.8c-1.5,0-2.2-2.6-1.8-4C202.4,205.6,200.8,208.2,201.8,209.3z"/>
	<path class="st36" d="M177.5,210.6c1.4,0,2.8-0.1,4.1,0.2c-1.8,1.4-4.4,1.2-6-0.4C176.3,210.2,176.8,210.9,177.5,210.6z"/>
	<path class="st36" d="M76.9,193.2c1-0.7-0.3-2.3,1.6-2.2c0.9,0.1,1,0.6,0.9,1.3C79.3,193.9,78.3,193.3,76.9,193.2z"/>
	<path class="st36" d="M168.8,202.5c1.8,0,1.8,0,1.9,1.9c-0.6,0.3-0.3,1-0.9,1.7C170.2,204.5,168.1,204,168.8,202.5z"/>
	<path class="st9" d="M269.4,228.3c1,0.4,0,1.6,0,2.3c-0.7,1.8-2.3-0.9-1.5-1.9C268.7,229.3,269.1,228.9,269.4,228.3z"/>
	<path class="st36" d="M168.6,194.9c0.1,1-0.1,2.1-0.7,3C166.9,196.3,167.1,195.5,168.6,194.9z"/>
	<path class="st8" d="M65.7,192.8c0-0.3,0-0.6-0.1-0.9c1.8-0.7,2.5-0.3,2.2,2C67.3,193.2,66.5,193,65.7,192.8z"/>
	<path class="st35" d="M84.2,207.4c0.2,1.1-1.8,1.2-1.8,0.1C82.4,206.3,84.1,206.2,84.2,207.4z"/>
	<path class="st8" d="M210,190.4c-0.1-1.4,1.1-1.3,2-1.6c0.1,0.5,0.1,1.1,0.2,1.6C211.6,190.8,210.7,190.3,210,190.4z"/>
	<path class="st8" d="M360.2,253.5c1.7-0.1,3.4-0.4,5.1,0.4C363.6,253.9,361.7,254.4,360.2,253.5z"/>
	<path class="st15" d="M364,254c0.9-0.2,1.7,0,2.5,0.5C365.5,255.2,364.8,254.4,364,254z"/>
	<path class="st36" d="M248.5,223.1c-0.1,0.4-0.2,1.4-0.8,1C247.2,223.6,248,223.2,248.5,223.1z"/>
	<path class="st15" d="M366.8,254.6c0.7,0.1,1.5-0.2,2.1,0.4C368.1,255.2,367.3,255.8,366.8,254.6z"/>
	<path class="st8" d="M212,192c0,0.1,0,0.2,0,0.3C211.7,192.3,211.8,192.1,212,192z"/>
	<path class="st8" d="M139.9,206.3c0.2-0.3,0.4-0.2,0.6,0C140.3,206.3,140.1,206.3,139.9,206.3z"/>
	<path class="st10" d="M88.2,189.7c0.1-0.3,0.2-0.5,0.5-0.6C88.8,189.5,88.6,189.7,88.2,189.7z"/>
	<path class="st9" d="M267.8,227.4c0.3,0.2,0.3,0.4,0.1,0.6C267.9,227.8,267.9,227.6,267.8,227.4z"/>
	<path class="st8" d="M148.5,206.1c0.2-0.2,0.4-0.3,0.6-0.1C149,206.3,148.7,206.3,148.5,206.1z"/>
	<path class="st8" d="M207.5,201.9c0-0.1,0-0.2,0.1-0.2c0.1,0.1,0.2,0.1,0.3,0.2C207.7,201.8,207.6,201.8,207.5,201.9z"/>
	<path class="st23" d="M794.5,75.8c0.8,0.7,2.1,1,1.9,2.4C795.6,77.6,794.3,77.3,794.5,75.8z"/>
	<path class="st23" d="M803.6,80.2c-0.6-2.8-1.5-5.4-1.9-8.2C803.9,74.2,803.6,77.4,803.6,80.2z"/>
	<path class="st19" d="M697.8,164.4c-0.2-4.9-2.7-0.6-5.3-1.6c1.6-2,1.1-3.9-0.2-5.8c1.2,0.1,2.1-0.1,2.4-1.4
		c5.4-2.3,2.2-15.3,9.1-15.2c4.7,0.9,1.3,3.3,4.3,3.7c5.3,1.4,1.4,15.1,3.3,20c0.6-2.3,2.2-3.3,4.4-3.2c-9.6,7.4,8.4,4.5,12.5,4.7
		c10.6-1.3,21.4,0.8,31.9-0.3c4.7-4,4-12.1,5.5-17.9c-0.1-4.4,7-7.2,6.6-1.2c-8.7-1.8-4.9,18.3-10.7,20.9c-16.3,0.3-32.7-0.1-49,0
		c-3.8,0-4,0.4-4.5-4.1C701.5,138.2,703.8,146.1,697.8,164.4z"/>
	<path class="st8" d="M784.5,146.9c2.7-2.3,1.1,3.3,3.1,3.4c1.6-0.1,0.9-2.7,2.8-2.3c-0.4,3.3-1.9,6-2.7,9.4
		c-1.4-1.2-0.8-2.7-1.2-3.9C786.2,151.1,783.9,149.5,784.5,146.9z"/>
	<path class="st19" d="M799.4,147.9c1.7,3.6,3.2-1,3.3-3c-0.2-2.9,5.8-6,4.6-1c-0.7-0.3-1.4-0.5-2.2-0.9c-2.1,2.4-1.4,8.5-3.9,9.7
		C799.3,152.5,799.1,149.4,799.4,147.9z"/>
	<path class="st8" d="M809,146c2.1-0.6,3.6,4.1,4.8,0.4c0.4-0.6,0.4-2.2,1.4-1.7C812.7,154,813.1,158.4,809,146z"/>
	<path class="st8" d="M774.3,151.9c2.3,3.7,0.1,6.6,4.3,0.4c0,2.6-0.5,5.2-1.1,7.8C774.3,159.2,774.5,154.6,774.3,151.9z"/>
	<path class="st19" d="M790.7,142.6c-0.7-5.2,2.8-3.7,1.9-5.8c0.1-4.1,3.8,2,4.2,3.3C790.2,138.5,794.6,139.9,790.7,142.6z"/>
	<path class="st19" d="M784.5,146.9c0,0.5,0,1,0,1.5c-2.9-1.1-3.4,2.4-5.8,2.8c-0.4-2.3,2.6-2.8,2.3-5.1
		C781.3,143.2,784.5,144.5,784.5,146.9z"/>
	<path class="st8" d="M772.4,146.1c0-0.4,0-0.8,0-1.2c2.5,0.7,1.8,4.6,1.8,6.7C772.8,150,772.8,148,772.4,146.1z"/>
	<path class="st19" d="M797,140.1c2.6,0.1,2.3,4.3,2.3,6.3C798.6,144.2,797.3,142.4,797,140.1z"/>
	<path class="st35" d="M718.2,169.9c0.4,2.2-1.7,2.2-1.5,0C717.2,169.9,717.7,169.9,718.2,169.9z"/>
	<path class="st19" d="M790.2,146.3c0.1-1.1-0.4-2.2,0.4-3.2C790.7,144.2,791,145.3,790.2,146.3z"/>
	<path class="st19" d="M807.6,144c0.7-0.1,1.3-0.1,1.3,0.9C808.1,145.1,807.7,144.8,807.6,144z"/>
	<path class="st35" d="M719.7,169.9c-0.4,0-0.7,0-1.1,0C719,169.4,719.3,169.4,719.7,169.9z"/>
	<path class="st20" d="M82.8,121.4c-0.6,18.2-0.2,36.4-2.9,54.1c-2.3,0.6-3.3-1.4-4.9-2.2c-4.7-0.6-8.9-3.6-13.4-4.9
		c-1.6-1.7-3.5-1.6-5.5-1c0.9-1.3,9.2-4.1,6.3-0.2c0.3,0.5,0.9,0.3,1.2,0.2c1.3-0.5,5.5-0.4,5.9,0.9c-0.8,2.7,6.5-1.2,4.3,3.2
		c4.6,0.6,5.3-4,4.3-7.6c-0.4-1.2-2-0.7-2.8-1.5c-3.4-2.8-7.6-3.9-12-2.6c-1.2,0.9-2.2,1.8-3.8,1.4c-1.2,0.3-1.9-1.6-0.8-2
		c1.5-0.6,1.4-2.5,2.8-3.1c0.2-0.1,0.4-0.4,0.3-0.6c-0.1-2.9,3-3.7,4.7-5c2.1,0.1,7.7-2.6,6.9-5.1c-0.2-3.3,4.9-3.5,5.3-6.8
		c4.8-3.4,1-13.9,2.2-19.5c0-1.2-0.1-2.5,1.5-2.8C83.1,117.8,81.6,119.9,82.8,121.4z M79.2,146.5c-1.2,4.2-1.4,9.5-0.6,14.1
		C81.4,163.7,79.6,148.5,79.2,146.5z M68.4,169.5c-0.1-0.2-0.2-0.4-0.4-0.4C67.3,169.3,68.6,170.6,68.4,169.5z"/>
	<path class="st19" d="M96.3,131.5c-1.5,1.5-1.5-1.7-2.7-2.1c-1-0.8-0.5-2.1-0.7-3.1c0.2-1.1-0.6-2.9,0.9-3.4
		C98.3,121.2,95.6,129.1,96.3,131.5z"/>
	<path class="st19" d="M91.1,122.8c-0.8-3.2-5.1-4.5-4.4-8.3C88.9,115.1,95.6,122.1,91.1,122.8z"/>
	<path class="st19" d="M102.5,85c0.2,3.6-0.7,7.3,1.4,10.3c-0.1,0.4-0.3,0.4-0.4,0.2c-0.8-0.8-2.1-0.3-2.7-1.3
		C101.2,92,100.1,85.5,102.5,85z"/>
	<path class="st20" d="M86.2,105.6c1.9-1.8,7.5,2,5.8-2.4c1.5,0.1,0.8,2.1,2,2.9c1.6,2.4-3.7,1.9-4.6,0.7
		C88.4,105.8,87.4,105.5,86.2,105.6z"/>
	<path class="st20" d="M75.7,105.6c3.2-0.2,6.4-0.6,9.6,0c-2.2,3.6-2.4,0.1-5.4,0.5C77.7,106.8,76.9,109,75.7,105.6z"/>
	<path class="st19" d="M24.8,177.5c0.1,1.9-0.6,1.9-2.2,1.4c-3.8-2.8-8.3-0.1-12-0.9c-1.3-1.7,3.7-4.8,5.3-5c0.6,0,1-0.7,1.4-1.2
		C19.5,168.7,24.3,175.6,24.8,177.5z"/>
	<path class="st10" d="M56,167.5c4.6-1.7,8.5,3.2,13.1,3.8c2.2,0.3,3.4,2.5,5.9,2c1.3,0.3,1.7,2,3.2,2.2c-0.8,0.7,0.8,0.7,0.3,0.9
		s-1.4,0.4-1.9-0.2c0-1.1-8.9-1.8-7.6-4.1c-0.6-1.3-2.3,1.5-3.1-0.2c-1.2-0.9-2.9-0.6-4.1-1.8c-1.2-1.2-1.2-0.9-3,0.1
		c-2.4,3.9-0.3,10.3-1.5,15c0.1,0.9-1.7,0.5-1.2,1.6c3.1,1.7,0.7,6.5,4.2,7.5c1.4,0.5-1.4,2.6,0.9,1.9c0,0.5,0,0.9,0,1.4
		c-0.9-0.1-1.2,0.9-0.2,1c0.1,0.4,0.1,0.9,0,1.3c-1.6-1.4-3-3.9-3.7-6.1c0.1-1.1-0.1-1.9-1.4-2l0,0C55.1,184.1,55.2,175.6,56,167.5z
		"/>
	<path class="st23" d="M56,191.9c1.2,0.1,1.5,0.9,1.4,2C56.3,193.7,56.1,192.8,56,191.9z"/>
	<path class="st23" d="M55.5,190c0.7,0.5,0.4,1.3,0.5,1.9C55.3,191.5,55.6,190.7,55.5,190z"/>
	<path class="st23" d="M39.7,191.4c-0.1,0-0.1,0-0.2-0.1c0.1-0.1,0.1-0.1,0.2-0.2l0.1,0.1C39.8,191.3,39.8,191.3,39.7,191.4z"/>
	<path class="st37" d="M734,80.2c1.6-4.1,4-0.2,6.2,1c3.8,5.2,7.7-22.7,11.5-23.7c0.4,9.9-5.3,16.7-8.1,25.8c0.5,3.1-3.8,4-2,7.3
		c0.5,2-3.3,1.6-4.4,0.8c-9,0.5-4.3,18.8-7.9,25.5c-5.1,6.1-24.9-0.2-34.5,6.1c-21.5,8.7-47.2,12.2-64.3,28.5
		c0-6.7,8.3-7.3,11.9-10.9c3-12.6,15.8-13.6,26.2-17.3c5.5-10.2,16.5-18.1,26.3-22.3C715.8,81,734.5,104.9,734,80.2z M735.5,86.9
		c-0.2,5.4,4.7-2,3-3.9C734.5,77.7,735.9,84.1,735.5,86.9z"/>
	<path class="st10" d="M704.1,127.4c0.7,5.2-3.1,9.8-4.9,14.5c-2.2-1.9-2.9-4.8-5.3-6.4c-0.7-0.4,0.1-2.5,1.1-2.5
		C699.3,133.2,700.7,128.6,704.1,127.4z"/>
	<path class="st8" d="M694.7,155.5c-4.6,6-2-6.5-4.7-7.6c0.1,3.7-2.2,1.8-2.1,4.8c-0.2,0-0.3,0.1-0.2,0.3c-1.3,0.4-1.5,1.7-2.1,2.6
		c-1.1-4.2,2.5-5.1,1.9-9.4c0.1-1,0.1-2,1.4-2.1C694.1,144.7,691.3,152.6,694.7,155.5z"/>
	<path class="st19" d="M753.3,133.9c-4.6,5.8-7-0.3-12.1,4.3c1.6-7.7,6.7-0.4,8.5-3.5C750.4,133.5,752,134,753.3,133.9z"/>
	<path class="st19" d="M807,125.8c-5.5-1.1-12.1,6.3-15.9,0C798.6,128.7,800.2,123.7,807,125.8z"/>
	<path class="st19" d="M717.8,158.9c-0.7,0.6-0.8,1.8-2,1.9C716.3,160,716.2,158.6,717.8,158.9z"/>
	<path class="st19" d="M813.7,130.1c-0.7-0.1-1.4,0.2-1.9-0.5C812.4,129.7,813.2,129.3,813.7,130.1z"/>
	<path class="st10" d="M630,152.2c0-0.3,0.2-0.4,0.4-0.5c0,0.2-0.1,0.4-0.1,0.6C630.2,152.2,630.1,152.2,630,152.2z"/>
	<path class="st17" d="M366,247.6c-2.4,0-3.8-3.1-4.3-5.2C363.2,244,365.2,245.3,366,247.6z"/>
	<path class="st17" d="M366.6,249c-0.7-0.2-0.6-0.8-0.6-1.4C366.7,247.9,366.6,248.5,366.6,249z"/>
	<path class="st17" d="M361.6,242.3c-0.6,0-0.9-0.3-0.9-0.9C361.2,241.5,361.6,241.8,361.6,242.3z"/>
	<path class="st10" d="M624.2,146.5c1-2.7,3.6-2.6,3.8,0.5C626.8,146.1,625.5,146.5,624.2,146.5z"/>
	<path class="st19" d="M601.1,162.7c0.7,0,2.5-0.1,2.2,0.9c-0.7,0.1-1.8-0.3-1.5,1.1c0,0.5-0.4,0.4-0.7,0.2
		C601.1,164.2,601.1,163.5,601.1,162.7L601.1,162.7z"/>
	<path class="st18" d="M608.4,175.7c1.2-0.1,1.1,1.4,0.1,1.3C607.4,177.1,607.5,175.7,608.4,175.7z"/>
	<path class="st19" d="M586.2,159.5c0.8-2.5,4.3-3.9,5.3-0.8c0.1,0.5,0.2,1,0.8,1.1c2.1,0.1,0.4,2.6,2,3.3c1.7,0.7,2.2-1.9,3.8-1.8
		c0.5,0,0.9-0.4,1.1-0.8c0.7-1.4,2.2-3,3.4-3.7c0.8,0.5,0.6,2.2,0,2.6l0,0c-0.2,0.2-0.3,0.3-0.5,0.5c-0.8,0.6-0.5,2-1,2.9l0,0
		c-2.4,0.4-4.9,4.4-5.8,6.7l0,0c-1.2,0.2-0.9,2-2,1.9c-1.7-3-3.1-8.6-6.5-9.3C585,162.6,586.1,160.4,586.2,159.5z"/>
	<path class="st17" d="M593.4,171.3c1.7,0.3,2.2-0.5,2-1.9l0,0c0.8,0.1,1.6,0,1.8-0.8c0.4-1.8,2.2-2.5,3-3.9
		c0.4-0.5,0.8,0.6,1.4,0.5c0.2,2.3-2.6,3-2.4,5.5c-0.2,1.8-0.5,3.5-1.6,5.1c-1.7,2.2,0.1,5.2-1.7,7.4
		C593.3,180.4,591.9,174.4,593.4,171.3z"/>
	<path class="st18" d="M580.9,173.3c0.6,0,1.3,0.1,1.9,0.1c-0.3,1.2,0,10.1-1.9,7c0-1.4,0.1-2.9-1.7-3.6c-0.6-1-0.2-2.8,0-4
		C579.8,173,580.4,173.1,580.9,173.3z"/>
	<path class="st29" d="M580.9,173.3c-2.6,0-1.8-3.2-4.4-3.7c-0.9-0.2-1.9-0.3-2.2,0.7c-2.4,2.2-1.8,0.5-2.6,4.3
		c-0.3,0.8-0.9,0.7-1.2,0c-1-2.1-3.1-0.2-4.3-0.2c-3.1,1.6-2.6,3.2-2.5,6.5c-2.3-1.3,0-3.8-1.5-5.6c1.3-0.2,1.2-1.4,1.5-2.2
		c0.6-3.6,4.3-0.6,6.5-2.2c1.6-0.6,1-3,2.5-3.8C576.2,165.9,581.4,169.6,580.9,173.3z"/>
	<path class="st29" d="M554.1,175.9c-0.1-3.3,0.3-6.8-0.6-9.8c0.8-0.9,2.3-0.3,3.4-0.5c2.2-0.3,1.9,0.8,3,2.5
		c2.9-3.5,1.3,5.6,2.2,7.2c-1.4-0.4-1.2-1.9-1.8-2.8C558.1,168.9,556,175.1,554.1,175.9z"/>
	<path class="st18" d="M551.7,182.9c0.2-1.4,0.1-4.6,2-4.6c-0.1,2,0.1,4-1.4,5.8c-1.6,2-0.5,4.5-1.5,6.9c-1.2-1.9-1-3.9-1-5.8
		C551.3,187.4,551.3,184.2,551.7,182.9z"/>
	<path class="st18" d="M548.3,183.3c0.5,0,0.9,0,1.4,0l0,0c0,0.6,0,1.3,0,1.9l0,0C549,184.8,548.1,184.5,548.3,183.3z"/>
	<path class="st35" d="M688,152.6c-0.3-2.8,2.2-1.2,2-4.7c1.1,0.8,1.4,2,1.1,3.3C689.6,151.4,690.2,153.6,688,152.6z"/>
	<path class="st35" d="M687.7,153c0-0.2,0-0.3,0.2-0.3C687.9,152.8,687.9,152.9,687.7,153z"/>
	<path class="st17" d="M537.8,191c2.4,0.6,1.4-4,3.8-2.4c0.6,4.2-1.2,3.1-2.9,6C537.9,193.5,537.7,192.3,537.8,191z"/>
	<path class="st10" d="M149.6,198.4c-3.4,7.9-2.8,6-11.5,5.7c-2.9-20.7,4-16.8,16.5-30.1c3.6-1.4,8.7,7.9,12.2,9.5
		c-3-0.3-3.9,1.3-4.3,3.8c-0.2,0.5-0.5-0.8-0.7-0.1c0,1.3-0.5,2.5-0.5,3.8c0.1,1.6-4.6,4.3-3.7,1.6c0.8-0.3,0.4-0.9,0.5-1.4
		c0.1-0.3,0-0.4-0.9-0.6c-0.9-0.5-0.2-1.9-0.5-2.8c-0.9-3.8-5.5,0.8-4.6,3.2C149.5,192.2,152.5,196.9,149.6,198.4z"/>
	<path class="st10" d="M170.5,194c0.3-1.3,0.3-6.9-1.7-4.4c0-1.3-0.6-6.2,1.5-5.1c2.9-1.4,6.2,3.4,8.2,5.4
		c6.3,4.2,17.2-3.1,12.9,10.4c-2.3,0-1.7,3.5-2,5.1c-0.9,0.2-1.2,0.9-1.4,1.7c-1.2,3.5-7.2,0.5-10.2,1.4c1.1-2.5-3.9-0.5-4.1-4.5
		c-0.2,1.1-0.2,1.6-0.3,2.2C172.4,202,170.9,198.4,170.5,194z"/>
	<path class="st10" d="M187.7,170.5c-2,0.1-4,1.2-5.6-0.8c-2.9-0.4-6.3-1-9,0.7c-1.5,1-3.4,0.5-4.6,2.1c-0.7,1-3,1.1-3.6,0.2
		c-1.7-3.6-7-2.7-8.5-6c-0.2-1.3,1.4-1.5,2.2-2.2c2.9-3.1,6.9-1.3,10.1-3C176.9,153.5,182.6,164.9,187.7,170.5z"/>
	<path class="st10" d="M143.5,142.1c2.7,0.1,12.7,6.2,11.4,9.3c-3.2,0.9-6.1-3.8-9.7-3.1c-0.5,0-1.1-0.2-1.2-0.7
		C143.3,145.7,138.9,142.2,143.5,142.1z"/>
	<path class="st7" d="M135.2,191c-2.3,0.3-0.6-5-1.2-6.6C136.2,183.1,135.1,189.6,135.2,191z"/>
	<path class="st8" d="M65.3,189.8c-0.3-0.1-1.1-0.3-0.6-0.6C65.1,189.1,65.5,189.2,65.3,189.8z"/>
	<path class="st28" d="M65.9,191.7c0,0.1-0.1,0.2-0.2,0.2C65.5,191.7,65.7,191.5,65.9,191.7z"/>
	<path class="st15" d="M372.7,195.8c0.1-0.2,0.1-0.3,0.2-0.5C373,195.5,372.8,195.6,372.7,195.8L372.7,195.8z"/>
	<path class="st7" d="M734,80.2c-0.4,3.7-0.8,7.3-1.5,11c-4.1-1.3-8.5,1.5-12-1.8c-0.5-0.2-0.4-0.9,0-1.2
		C724.4,84.9,728.8,80.1,734,80.2z"/>
	<path class="st23" d="M622.7,133.9c-0.5,0.6-1,1.3-1.5,1.9C621.2,134.8,621.5,133.9,622.7,133.9z"/>
	<path class="st23" d="M625.1,131c-0.3,0.7-0.8,1.1-1.4,1.4C623.6,131.4,624.1,130.9,625.1,131z"/>
	<path class="st23" d="M622.3,128.8c0.1,0.1,0.4,0.2,0.5,0.3C623.1,130.1,621.1,129.1,622.3,128.8z"/>
	<path class="st23" d="M625.6,130.1c0,0.4-0.1,0.7-0.5,0.9C625.1,130.6,625.2,130.3,625.6,130.1z"/>
	<path class="st19" d="M612.2,146.4c-1.7-2.8,0.8-2.6,1.8-4.5c0.1-0.4,0-1.1,0.6-1c1.1,0.2,1.1,2.5,0.4,3.1c-0.5,0-1.1-0.1-1.4,0.5
		c-0.7,0.4-0.4,1.3-0.5,1.9C612.8,146.4,612.5,146.4,612.2,146.4z"/>
	<path class="st23" d="M613.1,146.4c0.1-0.6-0.2-1.4,0.5-1.9C613.5,145.1,613.8,145.9,613.1,146.4z"/>
	<path class="st23" d="M613.6,144.5c0.3-0.6,0.9-0.5,1.4-0.5C614.7,144.5,614.1,144.4,613.6,144.5z"/>
	<path class="st23" d="M601.6,160.8c0-0.4,0.1-0.8,0.5-1C602.1,160.2,602,160.6,601.6,160.8z"/>
	<path class="st23" d="M602.1,159.8c0.2-0.2,0.3-0.3,0.5-0.5C602.4,159.5,602.2,159.7,602.1,159.8z"/>
	<path class="st23" d="M602.6,159.3c0.2-0.2,0.3-0.3,0.5-0.5C602.9,159,602.7,159.2,602.6,159.3z"/>
	<path class="st17" d="M549.8,185.2c0-0.6,0-1.3,0-1.9c0.7,0,1.3-0.1,1.9-0.5C551.3,184.2,551.3,187.4,549.8,185.2z"/>
	<path class="st17" d="M228.3,207.1L228.3,207.1c-0.4,0.1-0.8,0.2-1.2,0.2c-1-3.3-6.5-10.7-1.6-12.1c1.7,1.6,1.1,3.8,1.5,5.7
		C228.9,202.7,228,205,228.3,207.1z"/>
	<path class="st17" d="M223.3,195.4c-0.7-0.1-1.1-0.8-1.9-0.2c-3.3-1.6-2.7,0.2-4.3,2.5c0.1-1.7-2.3-2.3-1.9-4.2
		c0.4-0.5,1.3,2,1.4-0.2C219.1,191,223.9,191.3,223.3,195.4z"/>
	<path class="st18" d="M215.3,193.4c-0.4,1.9,2,2.5,1.9,4.2v0.1c-1.3-0.1-1,1.6-1.9,2.2c-1.3-1.8-0.7-4.1-1.2-6.1
		c0-2.2-2.3-2.9-2.1-5C213.3,187.6,214.7,192.4,215.3,193.4z"/>
	<path class="st17" d="M234.9,200.6c-2.3-0.8-2.9-0.6-4.1,1.4c0-1-0.4-2,1-2.6c0.7-0.3,0.2-0.9,0.2-1.5c-0.4-1.7,2.3-2.5,2.6-0.9
		C234.4,198.3,235.2,199.4,234.9,200.6z"/>
	<path class="st17" d="M238.8,210.2c-2.9,1-1.6-3.5-1.9-5.3C239.7,204.9,238.6,208.4,238.8,210.2z"/>
	<path class="st17" d="M275.7,218.5c-1.5-0.8-2.9-1.3-4.2,0.4C270.3,214.9,276.4,215.3,275.7,218.5z"/>
	<path class="st17" d="M236.9,204.6c-0.3,0.3-0.6,0.7-0.9,1c-1.1-0.8-1.1-2-1.5-3.1c0.6-0.3,0.4-0.9,0.5-1.4
		C237,201.5,236.9,203.1,236.9,204.6z"/>
	<path class="st17" d="M250.7,223.1c-1.9-0.9-1.2-3-1.4-4.7C251.7,218.4,250.5,221.6,250.7,223.1z"/>
	<path class="st17" d="M199.4,192.1c-1.8-0.1-1.7-3-1-4.1C199.5,188.2,199.5,190.9,199.4,192.1z"/>
	<path class="st17" d="M201.8,196.5c-1.8-0.5-1.8-0.5-1.9-3C201.8,194.2,201.8,194.2,201.8,196.5z"/>
	<path class="st17" d="M251.2,224.1c-0.1-0.1-0.2-0.3-0.3-0.4C251,223.9,251.1,224,251.2,224.1z"/>
	<path class="st17" d="M181.5,208.4c7-0.3,3.5,2.3,7.9-3.1c-0.2,6-2.9,5-7.8,5C181.9,209.5,182.6,208.8,181.5,208.4z"/>
	<path class="st17" d="M173.4,206c0.1-0.5,0.1-1.1,0.3-2.2c0.6,2.2,1.6,3.1,3.4,3C181,208.3,171.4,209.8,173.4,206z"/>
	<path class="st17" d="M189.5,204.2c0-1.3,0-4.2,1.9-4C191.4,201.8,190.8,203.1,189.5,204.2z"/>
	<path class="st28" d="M201.8,209.3c-0.7-0.8-0.3-1.7-0.3-2.6c0.1,0.1,0.3,0.1,0.4,0C202.1,207.6,202.1,208.5,201.8,209.3z"/>
	<path class="st28" d="M177.5,210.6c-0.4,0.1-0.8,0.1-1.1-0.2C176.8,210.2,177.2,210.3,177.5,210.6z"/>
	<path class="st28" d="M283.4,222.5c-1,0.6-1.4-1.4-0.3-1.1C283.7,221.5,283.6,222,283.4,222.5z"/>
	<path class="st17" d="M151.1,195.5c0.3-1.3-1-4.1,0.8-4.5C152,192.6,152.1,194.1,151.1,195.5z"/>
	<path class="st28" d="M166.5,187c0-0.2-0.1-0.3-0.1-0.5C166.6,186.5,166.7,186.8,166.5,187z"/>
	<path class="st17" d="M216.3,198.1c0.2-0.3,0.5-0.4,0.8-0.3C217,198.1,216.7,198.2,216.3,198.1z"/>
	<path class="st10" d="M227.1,207.3c0.4-0.1,0.8-0.1,1.2-0.2C228.5,208.2,227.2,208.5,227.1,207.3z"/>
	<path class="st17" d="M61.1,198.7c-1-0.1-0.6-1.2,0.2-1C61.3,198,61.2,198.4,61.1,198.7z"/>
	<path class="st17" d="M61.3,196.3c-0.6,0.3-1.1,0.3-0.9-0.6C60.8,195.7,61.1,195.9,61.3,196.3z"/>
	<path class="st27" d="M79.2,146.5c0.4,2,2.2,17.2-0.6,14.1C77.8,156.1,78,150.8,79.2,146.5z"/>
	<path class="st27" d="M68.4,169.5c0.1,0.7-0.5,0.4-0.6-0.1C67.6,168.9,68.5,169.1,68.4,169.5z"/>
	<path class="st23" d="M735.5,86.9c0.6-2.6-1.3-9.5,3-3.9c1.6,2.2-1.2,3.4-1.4,5.5C736.3,90.2,735.2,88.1,735.5,86.9z"/>
	<path class="st10" d="M601.1,165c-0.4,0.1-0.6-0.9-0.9-0.3c-0.8,1.4-2.6,2.1-3,3.9c-0.2,0.8-1,0.9-1.8,0.8c0.9-2.4,3.3-6.3,5.8-6.7
		C601.1,163.5,601.1,164.2,601.1,165z"/>
	<path class="st10" d="M595.4,169.4c0,1,0.1,2.1-1.5,1.9C594.3,170.6,594.4,169.7,595.4,169.4z"/>
</g>
<linearGradient id="SVGID_2_" gradientUnits="userSpaceOnUse" x1="422.3998" y1="183.1898" x2="819.6" y2="183.1898" gradientTransform="matrix(1 0 0 -1 0 421.8898)">
	<stop  offset="0" style="stop-color:#59B363"/>
	<stop  offset="1" style="stop-color:#438E62"/>
</linearGradient>
<path class="st38" d="M465.5,343.1l354.1-6.4V155l-1.5-18.7l-2.4,2.3l-3.3,15.2l-6.3-16.4l-5.2,14.1l-1.6-6.7l-4.9-10.5l-6.9,15.8
	l-4.9-8.2l-6.2,9.8l-5-11l-11.2,24.4l-37-0.2l-19.5-24.8l-8.4,14.6l-6.5-14.6l-8.7,29.3l-12.4,2.1l-16.2-29.7l-4.9,5.7l-2.5,13.7
	l-7.6-15.9l-4.1,12.6l-8-14.4l-8.7,23.4l-4.1-11l-3.9,13.3l-6.6-6.6c0,0-7.6,19-5.7,19c1.9,0-9.2-22.2-9.2-22.2l-5.2,18.1l-4.4-8
	l-5.6,8l-4.7-3.2l-3.5,5l-6.3-6.1l-5.2,11.8l-5.5-8.9l-7.4,22l-0.6-7.3l-6.9,4l-4.1-4.6l-4.6,9.1l-1.6-5.6l-6.7,9.1l-4.2-6.6
	l-6.9,10.2l-14.8,9.9l-6.1-7.2l-6.1,12.6l-26,16.8l-8-7l-14.4,11.6l-5,9.9L465.5,343.1z"/>
<path class="st28" d="M-10.4,223.3c0,0,6.6,0.9,7.1-4c0.6-4.9,5.1-22,5.1-22l2.3,10.9l5.4-12.3l5.7,17.7l6.6-19.4l5.7,13.4l5.7-25.1
	l6.3,20.5l6.3-23.6l7.7,24.9l7.7-24.9l5.4,13.3l8.3-13.3l8,15.3l2.9-17l4.9,13.7l6.9-20.3l6.6,13.2l5.4,11.1l-1.4-6.6l3.7-16.6
	l8.8,13.9l-2.8,9.5l8-27.1l15.6,31.7c0,0,6.4,3,6.4-2.9c0-2,4.3-20,4.3-20l5.1,16.6l6-17.7l10.5,22.8l13.3,4l6-25.1l9.8,16.9l4.5-16
	l5.4,13.1l3.7-8l7.7,23.4l5.7-16l7.1,19.4l6.1-11.4l9.4,19.4L259,199l8.4,18.4l3-8.7l4.9,14.6l5.1-13.5L287,229
	c0,0,112.6,26.3,185.7,28.6l4.6-6.9l-3.4-5.4l3.4-2.1l4.5-13.1l3.9,12.4l1.5,8.4l8.4-19.7l4.5,21.9l6.2-11.8l3.9,12.2l4.7-3
	l4.5-14.1l3.9,15.9l5.8-16.3l2.8,15.9l10.1-23.1l5.6,21.2l4.9-10.5l1.5,9l4.9,5.4l2.6-6.4l1.1,5.6l4.9-5.8l1.7,6.9
	c0,0,142.6-0.9,158.6,8.8c16,9.7,25.7,149.5,25.7,149.5h-760L-10.4,223.3z"/>
<linearGradient id="SVGID_3_" gradientUnits="userSpaceOnUse" x1="420.534" y1="94.0996" x2="817.8414" y2="94.0996" gradientTransform="matrix(1 0 0 -1 0 421.8898)">
	<stop  offset="0" style="stop-color:#1D7265"/>
	<stop  offset="1" style="stop-color:#105157"/>
</linearGradient>
<path class="st39" d="M817.7,240.4c-0.1-0.9-0.6-1-1.3-0.6c-1,0.7-1.1,1.7-1.1,2.8c0.1,1.8-3.2,20.5-4.7,19.5
	c-1.1-0.7-1.4-1.6-1.6-2.8c-0.2-1.4-6.1-23.5-6.6-25.6c-0.1-0.5-0.1-1-0.2-1.4c-0.1-0.4-0.3-0.7-0.8-0.8s-0.8,0.2-1,0.5
	c-0.4,0.8-1,1.6-1.1,2.6c-0.4,3.7-7.1,27.8-7.6,28.8c-0.2,0.4-0.8,0.5-1.3,0.2c-1-0.7-4.9-14.2-5-14.5c-0.4-1.1-1.3-0.7-2-0.7
	c-0.9,0.1-7.6,29.4-7.9,29.9c-0.6,0.8-1.1,1.8-2.2,1.7c-1.1-0.1-8.3-28.8-8.5-29.7c-0.9-0.2-0.8,0.5-0.9,0.9
	c-0.1,0.3-6.5,24.1-6.8,25.3c-0.2,0.7-1,0.5-1.6,0.5c0,0-9.1-24.4-9.2-24.4l-1.1-2.8c0,0-6.9,23.2-7.5,23.2l-6.7-14.1
	c-0.1,0.1-0.2,0.1-0.3,0.2c-1.8,1.9-6,20.5-6.4,21.2c-0.5,0.8-1.2,1-2.1,0.9l-7.2-18.8c0,0-6.7,26.5-6.7,27.8c0,1.1-0.1,2.3-1.2,2.7
	c-0.5,0.2-0.9,0.1-1.4,0c0,0-7.8-28.6-8.5-30.5c-0.1-0.3-0.4-0.4-0.7-0.4l-0.4-1.3c0,0-6.3,29-6.4,29.2c-0.4,0.5-0.6,1.2-1.4,1.1
	c-0.1,0-0.2,0-0.3-0.1c0,0-7.5-26-7.8-26l-0.7-2.3L678,271c-0.1,0-6.6,28-6.8,28.7c-0.3,0.9-0.5,1.4-0.8,1.7l-9.9-34.3
	c0-0.2-6.4-23-6.8-23.3l-0.7-2.5l-0.4,2.5c-0.4,0.7-5.5,31-6,31.2c0.1,0.8-0.1,1.5-0.3,2.2c-0.7-1.3-6.4-13.1-6.6-13.1
	c-1.3-2.7-2.2-4.6-2.3-4.9c-0.3-1.1-8.5,44.5-9.2,45.8c-0.1,0.2-0.3,0.5-0.4,0.7l-6.3-15.9c0-0.1-6.6-20.1-8.1-19.9
	c0,0-6.9,31.9-7.3,32c-0.5,0.1-0.7-0.3-0.9-0.6c-2.4-4.2-7.2-22.5-7.3-22.7c-0.4-0.7-0.8-1.5-1.8-1.3c-0.9,0.2-7.5,26.7-7.8,27.4
	c-0.2,0.8-0.6,1.5-1.5,1.6c-0.2,0-0.5-0.1-0.8-0.2c0,0-6.1-18.9-6.7-19.8c-0.8,0.7-0.5,1.5-0.5,2.3c0,0.4-7.6,30.2-8.3,30.5
	l-1.4,0.1c-0.2-0.1-0.4-0.1-0.7-0.2c-0.9-0.4-1.9-0.9-2.8-1.5c-2.7-1.6-3.9-1.4-5.7,1.3c-0.6,0.9-1.3,1.9-2,2.7
	c-17.2,7.5-78.5,32.8-130.9,39.6c-61.6,8,337.2,63,337.2,63H809l-1.2-17.8c3.3,0.3,6.5,0.6,9.6,0.8c0-52.5,0-105.1,0-157.6
	c0-2.1-0.2-4.3,0.4-6.4C817.9,242.1,817.8,241.2,817.7,240.4z"/>
<path class="st1" d="M485.2,366.1c2.3,0.9,4.7,1.9,7.2,2.1C489.6,367.4,487.2,366.7,485.2,366.1z"/>
<linearGradient id="SVGID_4_" gradientUnits="userSpaceOnUse" x1="577.3" y1="121.2898" x2="333.8" y2="121.2898" gradientTransform="matrix(1 0 0 -1 0 421.8898)">
	<stop  offset="0" style="stop-color:#009BA5"/>
	<stop  offset="0.1212" style="stop-color:#00ABB1"/>
	<stop  offset="0.2537" style="stop-color:#51BCBB"/>
	<stop  offset="0.3821" style="stop-color:#85CAC4"/>
	<stop  offset="0.5034" style="stop-color:#A1D4CA"/>
	<stop  offset="0.6147" style="stop-color:#DCEBD0"/>
	<stop  offset="0.7067" style="stop-color:#B6DCCF"/>
	<stop  offset="1" style="stop-color:#009BA5"/>
</linearGradient>
<path class="st40" d="M349.2,241.8c0,0-15.4,4.1-15.4,8.2s10.9,14.4,85.5,26.3s88.2,13,88.2,17.1s-133.1,18.1-157,41l83.8,25
	c0,0,143-51,143-66c0-15.1-155.3-26.3-155.3-26.3s-109-12.5-62.9-22.8"/>
<path class="st41" d="M817.3,406.9c-411.8-36.2-516.4-96.3-516.4-96.3c0.1-0.4,0.4-0.8,1-1.2c0.6-0.5-16.5-47.3-16.5-47.8
	c0-0.2-0.1-0.3-0.2-0.4c-0.2-0.3-0.4-0.7-0.5-1l-1.5-4.6c-0.1-0.3-0.2-0.6-0.2-1h-0.1l-0.4-1.3l-1,3.5c-0.4,1-2,5.2-1.9,6.6
	l-1.6,5.7c-0.1,0.2-0.2,0.3-0.3,0.5c-0.4,2.9-6.2,20.6-6.1,21c0,0.2,0,0.4,0,0.7l-1.5,5.5c-0.6,0.4-1.2,0.9-1.9,0.6
	c-0.7-0.3-0.5-1.1-0.5-1.7c0-0.9-2.8-7.1-3-9.8c-0.3,0.1-0.6,0.1-0.6,0.1c-0.9,3.2-3,6.1-3.1,9.6c0,0.8-0.5,1.3-1,1.8
	c-1.7,1.6-2.2,1.3-3-0.9c-1.6-4.4-8.5-31.3-8.6-32.2c-0.1-0.5-0.1-1-0.7-1.1c-0.6-0.1-7.7,25.3-8.3,25.6c-0.8,0.4-1.4-0.1-2-0.5
	c-0.7-0.5-3.5-14.9-4.7-15.1c-1-0.2-2-0.2-2.6,1c-0.7,1.1-6.4-15.4-6.9-17.9c-1.2,0.6-1.3,1.4-1.3,2.3c0,0.7-5.9,11.5-6.2,10.1
	c-0.2-0.8-4.2-13.9-5-16.5c-0.5-0.1-0.6,0.1-0.7,0.3c-0.2,1.6-0.9,3-1.6,4.4c0,0-12.9-45.5-13.1-46.8c-0.2-0.9-0.3-1.8-1-2.8
	c-0.8,1-10.2,39.8-11,40.3c-0.6,0.4-1.2,0.4-1.7,0.1c0,0-7.5-23.4-7.9-24c-0.6,0.1-0.4,1-1,1.2c0,0.6-6.3,20.3-6.3,20.3
	c-0.8-0.4-5.6-13.9-6.4-15.5c-0.3-0.7-5.5,6.3-6.3,6.6l-1.3-3.7c0.6-2-0.1-3.6-1.3-5.1c-0.4-0.5-0.8-1-0.9-1.7
	c-0.1-0.6-0.3-1-0.7-1.4l-1.3-3.8c0,0-10,29.3-10.9,30.8c-0.5,0.7-9.4-31-10-32c-0.5-0.9-1.1-0.8-1.5,0.2
	c-0.3,0.7-9.8,37.5-10.6,40.1c-0.2,0.7-0.5,1.2-1.2,1.2c-0.8,0-3.5-6.5-3.6-9.5c0-0.2-0.1-0.5-0.2-0.7c-0.1-0.3-0.3-0.6-0.7-0.6
	c-0.4,0-2,4.3-2.9,4.4l-4.4-14.2c0-0.2,0-0.4,0-0.6c-0.1,0-0.1,0-0.2-0.1l-1.8-5.7c-0.6,0-12.4,31.5-12.4,31.5
	c-0.1-0.1-0.2-0.2-0.3-0.3c-1.7-1.7-3.3-3.4-4.8-5.3c-0.5-0.7-0.6-1.1,0.1-1.8c1.5-1.3,1.5-2.3,0.5-3.9c-1.3-2-1.9-4.3-3-6.4
	c-0.4-0.9-0.3-1.8,0.4-2.7c1.4-1.5,1-3.3,0.4-4.9c-0.3-0.7-0.5-1.5-0.7-2.2c-0.7-2.5-1-5.1-2.3-7.4c-0.3-0.6-0.5-1.2-0.3-1.8
	c0-0.3,0-0.6,0-0.9c-0.8-2.3-2.3-4.4-2.4-7c0-0.4,0-0.8-0.5-1c-0.2-0.1-0.4-0.1-0.5,0c-0.1-0.8-0.2-1.2-0.3-1.3
	c-0.1-0.2-0.7,1.1-1.6,3.5c-0.2,0.3-0.5,0.5-0.9,0.6c0,0.3,0,0.6,0,0.9c0.1,0.2,0.2,0.3,0.2,0.5c-0.5,1.5-1.1,3.3-1.8,5.2
	c-0.1,0.2-0.3,0.4-0.4,0.5c0,0.3,0,0.6,0,0.8c-0.6,1.7-1.1,3.5-1.8,5.4h-0.1c0,0.1,0,0.3,0,0.4c-0.6,1.8-1.2,3.7-1.8,5.7
	c-0.2,0.1-0.3,0.1-0.5,0.2c0,0.5,0,1,0,1.5c-0.6,1.9-1.2,3.8-1.8,5.7c-0.1-0.3,0.7-3.8-1.9-4.5c-0.8,1.6-4.1,12.1-4.5,13.8
	c-0.1,0.7,0.1,1.5-0.9,1.7c-1,0.1-2,0.2-2.5-0.9c-0.2-0.4-0.3-0.9-0.5-1.3c-0.1-0.5-0.2-1.1-0.3-1.6c-0.1-0.8-0.3-1.4-0.8-1.8
	c0,0-3.9-17.5-5.2-22.1c-0.3-0.9-2.4-7.7-2.4-7.7c0-0.5,0.1-1.2-0.7-1.3c-0.6,0-0.9,0.5-0.9,0.9c-0.1,2.7-6.1,21.1-6.1,21.4
	c-0.1,2.2-4.2,15.5-4.3,17.6c0,0.5-0.4,0.9-0.9,1c-0.4,0.1-0.9,0-1.1-0.4c-1.1-2.1-2.7-4.1-2.2-6.8c0-0.6,0-1.2-0.1-1.9
	c-0.4-0.1-1-0.6-1.3-0.1c-0.5,1-2.7,8.6-4,8.7c-0.7,0.1-1.6-0.6-2.1-1.4l-0.4-1.3c0-0.2,0-0.5-0.1-0.7c-0.2-4.1-6.4-22.2-6.8-23.9
	c-0.1-0.3-0.4-0.5-0.7-0.5c-0.4,0-0.5,0.3-0.5,0.7c-0.3,2.4-0.9,4.7-1.7,6.9c-0.3,0.7-5.1,18.9-5.5,21.8c-0.1,0.7-0.7,1.1-1.1,1.6
	c-0.5,0.6-0.7,1.7-1.7,1.3c-0.8-0.3-0.8-1.3-1-2c-0.1-0.7,0-1.4,0-2.1c0-0.3,0-0.6,0-0.9c-1.4-0.7-2-1.9-2-3.4c0-0.8,0-1.6,0-2.3
	c0-0.5,0-0.9,0-1.4c-0.1-0.1-0.3-0.2-0.4-0.3c-0.4-0.5-0.9-1.1-1.6-0.9c-0.8,0.2-0.4,1.1-0.5,1.7c-0.3,2.5,0.5,4.9,0.5,7.4
	c0,48.7,0,97.5,0,146.2l-2.2,6.8l2.1,0.3c0,25,0-61.4,0,1c0,0.6,0,1.1,0,1.7c0.1,1.7,0.3,2,2,2c0.7,0,1.4,0,2.2,0
	c270.5,0,540.9,0,811.4,0c4.4,0,4.2,0.3,4.2-4.1C817.3,349.2,817.3,475.6,817.3,406.9z"/>
<path d="M305,113.6c0-0.7,0-1.2,0-1.8c0-0.7-0.2-1-0.9-1.1c-0.8-0.1-1.7-0.2-2.6-0.2c-2.1,0.1-3.9,1-5.9,1.7
	c-0.7,0.2-1.4,0.5-2.1,0.7c-0.2,0.1-0.4,0.1-0.7,0.1c0.2-0.3,0.3-0.4,0.4-0.5c1.5-1.2,3-2.4,4.5-3.5c0.8-0.6,1.8-1,2.8-1.1
	c0.4,0,0.8,0.1,1.2,0.2c1,0.3,1.6-0.1,1.7-1.2c0-0.2,0-0.5,0.1-0.7c0.1-0.4,0.3-0.5,0.7-0.2c0.1,0.1,0.2,0.2,0.3,0.3
	c0.4,0.5,0.7,0.6,1.2,0.1c2-2.1,4.6-2.3,7.2-2c0.5,0,0.9,0.2,1.4,0.2c0.1,0,0.1,0,0.2,0.2c-0.4,0.1-0.7,0.3-1.1,0.4
	c-0.9,0.2-1.8,0.3-2.7,0.6c-2.4,0.6-3.9,2.2-4.6,4.7c0,0.2,0,0.5,0.1,0.6c0.4,0.5,0.9,1,1.4,1.5C307,113.1,306.1,113.7,305,113.6z"
	/>
<path d="M375.7-30.6c-1.2,0.9-1.9,2-2.4,3.4c-1.4,3.5-4.4,5-8.3,4.3c-2.3-0.4-4.4-1.2-6.4-2.3c-0.2-0.1-0.5-0.3-0.7-0.5
	c-0.1-0.2-0.2-0.4-0.2-0.7c0.2,0,0.4-0.1,0.6-0.1c1.9,0,3.8,0.1,5.7,0c0.5,0,0.9-0.5,1.4-0.8c-0.3-0.5-0.6-1-1-1.4
	c-0.1-0.1-0.2-0.1-0.3-0.2c-2.3-2-4.7-3.9-6.9-5.9c-1.3-1.1-2.4-2.4-2.9-4.1c-0.1-0.3,0-0.7,0-1c0.3,0.1,0.5,0.3,0.8,0.3
	c1.5,0.4,2.9,1.1,4.4,1.2c2.5,0.3,4.3,1.3,5.6,3.4c0.7,1.1,1.1,2.3,1.8,3.3c0.4,0.7,1,1.4,1.6,2c0.9,0.7,1.7,0.5,2.2-0.6
	C371.8-32.1,374.4-32.4,375.7-30.6z"/>
<path d="M242.4,82.2c1-0.3,1.8-0.4,2.6-0.7c0.4-0.1,0.7-0.5,1.1-0.8c-0.3-0.4-0.6-0.8-1-1.1c-1-0.5-1.8-1.1-2.6-2
	c-1.2-1.4-1.6-3-1.6-4.9c0.5,0.5,1,0.9,1.4,1.4c1.6,1.5,3.1,3,4.7,4.5c0.6,0.6,1.2,0.7,1.9,0.2c2.2-1.7,4.3-3.4,5.6-5.9
	c0.1-0.2,0.3-0.5,0.5-0.7h0.1c0,0.1,0.1,0.3,0.1,0.4c0.1,2-0.7,3.5-2.3,4.5c-0.7,0.5-1.5,0.9-2.2,1.5c0.1,0,0.3,0,0.4,0
	c0.7-0.3,1-0.1,1.1,0.6c0,0.2,0,0.3,0.1,0.5c-0.9-0.1-1.4,0.5-1.9,1c-1.1,1.2-2.4,1.7-3.9,1.8c-1,0.1-1.9,0-2.9-0.1
	C243.2,82.6,242.8,82.4,242.4,82.2z"/>
<path d="M390.9-56.5c2.1-1.8,4.2-3.7,6.3-5.4c1.1-0.9,2.3-1.8,3.8-2.2c0.5-0.1,0.9-0.7,1.4-1c0.2-0.1,0.5-0.2,0.6-0.1
	s0.2,0.4,0.2,0.6c0,0,0,0.1,0,0.2c-1.1,2.3-1.8,4.8-4,6.4c-0.6,0.4-1.2,0.8-1.9,1c-2.8,1-4.9,2.7-6.5,5.2c-1.6,2.6-3.8,3.5-6.8,2.9
	c-0.8-0.2-1.7-0.3-2.5-0.5c-0.2-0.1-0.4-0.3-0.7-0.5c0.2-0.2,0.3-0.5,0.5-0.6c0.4-0.2,0.8-0.2,1.2-0.3c0.5-0.2,1.1-0.3,1.5-0.5
	c0.9-0.4,1-1.1,0.4-1.8c-0.4-0.5-1-0.9-1.6-1.2c-3.5-1.4-5.9-3.7-6.9-7.4c-0.1-0.5-0.1-1.1-0.1-1.6c0.1,0,0.2-0.1,0.3-0.1
	c0.2,0.3,0.5,0.7,0.7,1c1,1.7,2.2,3.3,4,3.9c1.8,0.6,3.3,1.6,4.9,2.5c0.7,0.5,1.4,0.3,2-0.2c0.3-0.2,0.5-0.5,0.8-0.6
	C389.6-57.5,390.2-57.4,390.9-56.5z"/>
<path d="M340.2,141.9c0-0.9,0.6-1.4,1.2-2c-2.6,0.1-4.8-1-6.9-2.2c-0.3-0.2-0.7-0.4-1-0.7c-0.1-0.1-0.1-0.3-0.1-0.5
	c0.2,0,0.4,0,0.5,0.1c0.6,0.5,1.3,0.8,2.1,0.9c2.2,0.3,4.5,0.6,6.7,0.9c1,0.1,1.5-0.2,1.7-1.2c0.4-2.3,1.7-3.9,3.6-5.2
	c1-0.7,1.8-1.6,2.3-2.7c0.2-0.4,0.4-0.8,0.7-1.2c0.1-0.2,0.5-0.4,0.6-0.3c0.2,0.1,0.4,0.4,0.4,0.6c0,1,0,1.9-0.2,2.9
	c-0.4,2-1.7,3.4-3.3,4.6c-0.3,0.2-0.6,0.4-0.8,0.7c-0.2,0.3-0.3,0.7-0.2,1c0.1,0.3,0.5,0.4,0.8,0.6c0.2,0.1,0.4,0.2,0.6,0.3
	c-0.1,0.2-0.2,0.4-0.3,0.5c-0.7,0.6-1.4,1.1-2.1,1.7c-1.2,1.1-2.5,1.5-4,0.9C341.8,141.4,341.4,141.5,340.2,141.9z"/>
<path d="M406.8-68.5c0.1-1.2,0.1-2.5,0.4-3.7c0.4-1.9,0.9-3.7,1.5-5.6c0.5-1.4,1.6-2.2,3.1-2.3c0.2,0,0.5-0.1,0.7-0.2
	c1-0.6,1-1.2,0.1-1.8c-0.2-0.2-0.5-0.3-0.7-0.4c0.4-0.9,1.7-1.2,2.7-0.7c1.6,0.8,2.2,0.6,2.8-1c0.5-1.2,1.4-1.8,2.6-1.9
	c1.9,0,3.8,0.1,5.7,0.3c1.3,0.2,2.4,0.9,3.2,2c-1.7,0.1-3.3,0.1-4.9,0.5c-1.2,0.3-2.4,0.9-3.5,1.6c-2,1.4-2.3,2.8-1.6,5.1
	c0.2,0.8,0.4,1.6,0.5,2.4c0,0.2-0.2,0.5-0.3,0.8c-0.2-0.2-0.5-0.3-0.7-0.6c-2-3.7-7.1-3.1-8.7-0.2c-0.9,1.6-1.6,3.2-2.4,4.9
	c-0.1,0.2-0.2,0.5-0.3,0.8C407-68.4,406.9-68.4,406.8-68.5z"/>
<path class="st42" d="M-8.3,156.2c2.1-4.5,62.3-60.9,62.3-60.9"/>
<path class="st42" d="M72.1,99.1c2.1-4.5,31-38.2,31-38.2"/>
<path class="st11" d="M53.7,93.6c3.2,1.1,6.2,2.6,9,4.4c1.7,1.1,3.5,2.5,5.6,2.4"/>
<path class="st43" d="M105,60.3c-1.4,4.5-2.3,15.2-2.7,20"/>
<path class="st44" d="M800.5,80.5C794,75,787.4,69.4,783,62c-1.3-2.2-2.3-4.5-3.7-6.6c-1.4-2.3-3.2-4.5-4.6-6.8
	c-1.9-3.1-3.4-6.5-5.5-9.5c-2.1-3-5-5.7-8.5-6.5"/>
<path class="st44" d="M716.6,60.6c0.3,3.2,0.4,6.5,0.3,9.7"/>
<path class="st45" d="M755.5,63c-0.4-4.4-0.1-8.9,1.1-13.2c1.2-4.6,3.3-8.9,4-13.6"/>
</svg>
